<svg width="88" height="88" viewBox="0 0 88 88" fill="none" xmlns="http://www.w3.org/2000/svg">
<path d="M44.0003 6.41699C44.9816 6.41699 45.8886 6.9399 46.3803 7.78914L86.7136 77.4558C87.2061 78.3066 87.2071 79.3556 86.7161 80.2073C86.225 81.0589 85.3167 81.5837 84.3337 81.5837H3.66699C2.68392 81.5837 1.77562 81.0589 1.2846 80.2073C0.793575 79.3556 0.794517 78.3066 1.28707 77.4558L41.6204 7.78914C42.1121 6.9399 43.019 6.41699 44.0003 6.41699ZM8.43672 76.0837H79.5639L44.0003 14.6556L8.43672 76.0837Z" fill="#D99513"/>
<path d="M44.0003 61.417C45.5191 61.417 46.7503 62.6482 46.7503 64.167V66.0004C46.7503 67.5191 45.5191 68.7504 44.0003 68.7504C42.4815 68.7504 41.2503 67.5191 41.2503 66.0004V64.167C41.2503 62.6482 42.4815 61.417 44.0003 61.417Z" fill="#D99513"/>
<path d="M43.998 32.0846C45.5168 32.0834 46.7491 33.3135 46.7503 34.8323L46.7655 53.1647C46.7668 54.6835 45.5366 55.9158 44.0178 55.917C42.499 55.9183 41.2668 54.6881 41.2655 53.1693L41.2503 34.8369C41.2491 33.3181 42.4793 32.0859 43.998 32.0846Z" fill="#D99513"/>
</svg>
