<svg width="158" height="178" viewBox="0 0 158 178" fill="none" xmlns="http://www.w3.org/2000/svg">
<path d="M80.84 171.567C52.3182 171.567 29.1957 151.782 29.1957 127.374L27.9668 50.3062L77.5717 3.52715C79.7873 1.7641 82.5394 0.817046 85.3678 0.844323C88.1976 0.817107 90.951 1.76409 93.1683 3.52715L156.753 61.8983C157.917 62.8552 157.141 64.52 155.528 64.5506L143.327 64.686C142.342 64.686 141.549 65.3851 141.549 66.2284V127.374C141.549 151.782 118.452 171.567 89.9086 171.567H80.84Z" fill="white"/>
<path d="M66.9481 171.667C54.2701 171.653 42.1154 166.597 33.1508 157.609C24.1861 148.62 19.1437 136.433 19.1299 123.721V33.484C19.1299 33.2407 19.1777 32.9998 19.2705 32.775C19.3634 32.5502 19.4995 32.346 19.6711 32.174C19.8426 32.0019 20.0463 31.8655 20.2705 31.7724C20.4947 31.6793 20.7349 31.6313 20.9776 31.6313C21.2202 31.6313 21.4605 31.6793 21.6847 31.7724C21.9089 31.8655 22.1125 32.0019 22.2841 32.174C22.4557 32.346 22.5918 32.5502 22.6846 32.775C22.7775 32.9998 22.8253 33.2407 22.8253 33.484V123.721C22.8414 135.448 27.4957 146.69 35.7672 154.982C44.0387 163.273 55.2521 167.936 66.9481 167.949C67.4381 167.949 67.9081 168.144 68.2546 168.491C68.6011 168.839 68.7958 169.31 68.7958 169.801C68.7958 170.293 68.6011 170.764 68.2546 171.111C67.9081 171.459 67.4381 171.654 66.9481 171.654V171.667Z" fill="url(#paint0_linear_121_55979)"/>
<path d="M89.0333 171.667C88.5432 171.667 88.0732 171.472 87.7267 171.124C87.3802 170.777 87.1855 170.306 87.1855 169.814C87.1855 169.323 87.3802 168.852 87.7267 168.504C88.0732 168.157 88.5432 167.962 89.0333 167.962C100.731 167.949 111.947 163.284 120.219 154.99C128.491 146.696 133.143 135.451 133.156 123.721V65.1142C133.165 64.2059 133.526 63.3368 134.163 62.6908C134.8 62.0449 135.662 61.6729 136.568 61.6536L146.84 61.5182L87.7564 4.64575C87.4264 4.30058 87.2422 3.84083 87.2425 3.36266C87.2427 2.88449 87.4273 2.42494 87.7577 2.08011C88.0881 1.73529 88.5387 1.53191 89.0152 1.51251C89.4917 1.49311 89.9573 1.6592 90.3144 1.97603L149.829 59.2592C150.322 59.7356 150.663 60.3482 150.808 61.0192C150.954 61.6901 150.897 62.3893 150.645 63.0279C150.394 63.6665 149.958 64.2157 149.395 64.6058C148.831 64.9959 148.165 65.2094 147.48 65.2191L136.851 65.3545V123.721C136.838 136.433 131.795 148.62 122.831 157.609C113.866 166.597 101.711 171.653 89.0333 171.667Z" fill="url(#paint1_linear_121_55979)"/>
<path d="M4.60922 65.1667C4.24068 65.1662 3.88069 65.0553 3.57551 64.8481C3.27033 64.641 3.03391 64.347 2.89664 64.0041C2.75936 63.6612 2.7275 63.2849 2.80515 62.9237C2.8828 62.5625 3.06641 62.2328 3.33238 61.977L65.6708 1.97603C65.8431 1.79579 66.05 1.65233 66.2791 1.55429C66.5081 1.45625 66.7545 1.40565 67.0036 1.40552C67.2526 1.40539 67.4991 1.45574 67.7282 1.55354C67.9574 1.65134 68.1644 1.79458 68.337 1.97464C68.5095 2.15471 68.644 2.36789 68.7322 2.60137C68.8205 2.83485 68.8608 3.08382 68.8507 3.33331C68.8406 3.58281 68.7803 3.82768 68.6735 4.05322C68.5666 4.27875 68.4153 4.4803 68.2288 4.64575L5.9122 64.6511C5.56272 64.9886 5.09438 65.1739 4.60922 65.1667Z" fill="url(#paint2_linear_121_55979)"/>
<path d="M27.466 132.084C27.3031 132.084 27.1468 132.019 27.0315 131.904C26.9163 131.788 26.8516 131.632 26.8516 131.468V22.9142C26.8516 22.7508 26.9163 22.5941 27.0315 22.4785C27.1468 22.363 27.3031 22.2981 27.466 22.2981C27.629 22.2981 27.7853 22.363 27.9005 22.4785C28.0157 22.5941 28.0805 22.7508 28.0805 22.9142V131.468C28.0805 131.632 28.0157 131.788 27.9005 131.904C27.7853 132.019 27.629 132.084 27.466 132.084Z" fill="#042151"/>
<path d="M1.15346 76.4267C1.02973 76.429 0.908166 76.3939 0.804697 76.3258C0.701228 76.2577 0.620673 76.1599 0.573577 76.0452C0.526481 75.9304 0.51504 75.8041 0.540752 75.6827C0.566464 75.5613 0.628131 75.4506 0.717678 75.3649L63.0648 15.3596C63.1804 15.2437 63.3371 15.1786 63.5006 15.1786C63.5815 15.1786 63.6616 15.1946 63.7364 15.2256C63.8112 15.2567 63.8791 15.3022 63.9364 15.3596C63.9936 15.417 64.039 15.4851 64.0699 15.5601C64.1009 15.635 64.1169 15.7154 64.1169 15.7965C64.1169 15.8777 64.1009 15.958 64.0699 16.033C64.039 16.108 63.9936 16.1761 63.9364 16.2335L1.61974 76.2388C1.55945 76.3011 1.4868 76.35 1.40648 76.3823C1.32616 76.4147 1.23996 76.4298 1.15346 76.4267Z" fill="#042151"/>
<path d="M77.8412 139.045C68.2235 139.045 59.5733 130.647 52.0953 114.06C49.3324 113.37 46.8964 110.202 45.284 105.108C43.6368 99.9123 42.5865 91.2783 46.4301 88.7615C46.981 88.4104 47.607 88.195 48.2568 88.1327C48.9066 88.0705 49.5618 88.1631 50.1691 88.4032C49.4239 76.6975 51.4111 68.3039 56.2003 62.7722C60.7586 57.5288 67.7572 54.9072 78.2159 54.562H78.3946C88.9449 55.13 95.9304 57.8522 100.38 63.1217C104.99 68.5791 106.86 76.8679 106.045 88.377C106.622 88.1411 107.245 88.0431 107.866 88.0909C108.487 88.1387 109.089 88.3309 109.623 88.6523C113.584 91.0948 112.272 99.8948 111.026 104.212C109.431 109.73 106.93 113.195 104.019 114.012C100.41 124.123 91.0671 138.407 78.6779 139.023C78.3946 139.04 78.1157 139.045 77.8412 139.045ZM54.5444 110.447L55.0499 111.6C62.0528 127.536 70.1627 135.768 78.4905 135.322C88.2084 134.837 97.2726 122.826 100.872 111.771L101.308 110.46H102.663C104.005 110.46 106.084 107.956 107.457 103.15C109.2 97.094 108.585 92.3444 107.666 91.7895C107.583 91.7371 106.794 91.7895 105.099 93.3363L101.443 96.7444L102.001 91.772C103.4 79.3192 101.935 70.7245 97.521 65.4943C93.7864 61.0725 87.6593 58.7698 78.2421 58.2498C68.9207 58.5731 62.798 60.7753 58.9675 65.1885C54.4005 70.4318 52.8187 79.1182 54.1391 91.6934L54.6359 96.4124L51.0799 93.2751C49.5285 91.9031 48.6265 91.724 48.4347 91.8507C47.2973 92.5935 46.94 98.1296 48.7877 103.967C50.1604 108.297 52.0473 110.491 53.2719 110.478L54.5444 110.447Z" fill="#042151"/>
<path d="M81.5294 146.927L98.3113 136.244C98.4264 136.17 98.5564 136.122 98.6921 136.104C98.8277 136.086 98.9657 136.099 99.096 136.14C99.2264 136.182 99.3459 136.252 99.446 136.346C99.5462 136.439 99.6245 136.554 99.6753 136.681L102.046 142.523C102.103 142.665 102.124 142.82 102.107 142.972C102.09 143.124 102.036 143.27 101.95 143.397L89.8049 161.045C89.715 161.177 89.5929 161.283 89.4503 161.353C89.3078 161.424 89.1495 161.457 88.9907 161.448C88.8319 161.44 88.6779 161.391 88.5435 161.306C88.4091 161.221 88.2987 161.102 88.223 160.962L81.2113 148.168C81.0968 147.96 81.066 147.715 81.1251 147.485C81.1842 147.254 81.3288 147.055 81.5294 146.927Z" fill="#3AA088"/>
<path d="M89.0422 163.3H88.9027C88.4281 163.277 87.9672 163.133 87.5643 162.88C87.1613 162.628 86.8299 162.276 86.6018 161.858L79.5901 149.06C79.2519 148.437 79.1619 147.71 79.3382 147.024C79.5146 146.337 79.9442 145.744 80.5401 145.363L97.322 134.68C97.6662 134.461 98.0542 134.321 98.4583 134.269C98.8625 134.218 99.2731 134.256 99.661 134.381C100.049 134.506 100.405 134.715 100.703 134.993C101.001 135.271 101.235 135.612 101.388 135.991L103.759 141.837C103.932 142.264 103.997 142.727 103.946 143.185C103.895 143.643 103.73 144.081 103.467 144.459L91.3257 162.094C91.072 162.466 90.7313 162.771 90.3333 162.981C89.9353 163.191 89.492 163.301 89.0422 163.3ZM83.2463 148.033L89.125 158.773L100.146 142.768L98.3766 138.398L83.2463 148.033Z" fill="#042151"/>
<path d="M74.3075 146.836L57.5256 136.148C57.4101 136.075 57.2802 136.029 57.1449 136.012C57.0097 135.994 56.8723 136.007 56.7424 136.049C56.6125 136.09 56.4933 136.16 56.3929 136.252C56.2926 136.345 56.2137 136.458 56.1616 136.585L53.791 142.427C53.735 142.569 53.7145 142.723 53.7312 142.876C53.7479 143.028 53.8013 143.174 53.8868 143.301L66.032 160.957C66.1223 161.088 66.2443 161.194 66.3865 161.264C66.5287 161.334 66.6865 161.367 66.8448 161.359C67.0031 161.351 67.1568 161.303 67.2914 161.219C67.426 161.135 67.537 161.018 67.6139 160.879L74.6256 148.081C74.7425 147.872 74.7747 147.626 74.7154 147.394C74.6562 147.162 74.5101 146.962 74.3075 146.836Z" fill="#3AA088"/>
<path d="M66.7945 163.208C66.3445 163.209 65.901 163.1 65.5029 162.89C65.1047 162.68 64.7642 162.375 64.511 162.002L52.3658 144.354C52.1054 143.975 51.9428 143.537 51.8926 143.079C51.8424 142.622 51.9062 142.159 52.0782 141.732L54.4488 135.886C54.6008 135.506 54.8343 135.165 55.1326 134.887C55.4309 134.608 55.7868 134.399 56.1749 134.274C56.5631 134.148 56.9739 134.111 57.3783 134.163C57.7827 134.215 58.1707 134.356 58.5147 134.575L75.3009 145.271C75.8953 145.654 76.3233 146.247 76.4988 146.933C76.6742 147.619 76.5841 148.346 76.2466 148.968L69.2436 161.761C69.0162 162.179 68.6855 162.531 68.2833 162.784C67.8812 163.036 67.421 163.181 66.947 163.203L66.7945 163.208ZM55.6864 142.671L66.7073 158.677L72.5947 147.941L57.4775 138.302L55.6864 142.671Z" fill="#042151"/>
<path d="M86.0262 32.4177H78.9404V39.5224H86.0262V32.4177Z" fill="#3AA088"/>
<path d="M76.7001 39.8327H68.9824V32.0945H76.7001V39.8327ZM70.2113 38.6137H75.4668V33.331H70.2113V38.6137Z" fill="#042151"/>
<path d="M86.0262 42.3276H78.9404V49.4323H86.0262V42.3276Z" fill="#3AA088"/>
<path d="M76.7001 49.7556H68.9824V42.0173H76.7001V49.7556ZM70.2113 48.519H75.4668V43.2495H70.2113V48.519Z" fill="#042151"/>
<defs>
<linearGradient id="paint0_linear_121_55979" x1="16.8551" y1="150.689" x2="68.4958" y2="57.7767" gradientUnits="userSpaceOnUse">
<stop stop-color="#3AA088"/>
<stop offset="0.31" stop-color="#256E72"/>
<stop offset="0.62" stop-color="#134460"/>
<stop offset="0.86" stop-color="#082A55"/>
<stop offset="1" stop-color="#042151"/>
</linearGradient>
<linearGradient id="paint1_linear_121_55979" x1="63.2873" y1="157.624" x2="135.786" y2="27.1766" gradientUnits="userSpaceOnUse">
<stop stop-color="#3AA088"/>
<stop offset="0.29" stop-color="#2C7F7A"/>
<stop offset="0.93" stop-color="#082A55"/>
<stop offset="1" stop-color="#042151"/>
</linearGradient>
<linearGradient id="paint2_linear_121_55979" x1="14.8719" y1="71.1353" x2="56.86" y2="-4.41337" gradientUnits="userSpaceOnUse">
<stop stop-color="#3AA088"/>
<stop offset="0.31" stop-color="#256E72"/>
<stop offset="0.62" stop-color="#134460"/>
<stop offset="0.86" stop-color="#082A55"/>
<stop offset="1" stop-color="#042151"/>
</linearGradient>
</defs>
</svg>
