<svg width="112" height="112" viewBox="0 0 112 112" fill="none" xmlns="http://www.w3.org/2000/svg">
<g id="Communicate/message">
<g id="Vector">
<path d="M32.6673 38.4999C30.7343 38.4999 29.1673 40.0669 29.1673 41.9999C29.1673 43.9329 30.7343 45.4999 32.6673 45.4999H74.6673C76.6003 45.4999 78.1673 43.9329 78.1673 41.9999C78.1673 40.0669 76.6003 38.4999 74.6673 38.4999H32.6673Z" fill="#213543"/>
<path d="M29.1673 60.6666C29.1673 58.7336 30.7343 57.1666 32.6673 57.1666H74.6673C76.6003 57.1666 78.1673 58.7336 78.1673 60.6666C78.1673 62.5996 76.6003 64.1666 74.6673 64.1666H32.6673C30.7343 64.1666 29.1673 62.5996 29.1673 60.6666Z" fill="#213543"/>
<path d="M32.6673 75.8333C30.7343 75.8333 29.1673 77.4003 29.1673 79.3333C29.1673 81.2662 30.7343 82.8333 32.6673 82.8333H56.0006C57.9336 82.8333 59.5006 81.2662 59.5006 79.3333C59.5006 77.4003 57.9336 75.8333 56.0006 75.8333H32.6673Z" fill="#213543"/>
<path fill-rule="evenodd" clip-rule="evenodd" d="M56.0006 5.83325C28.2944 5.83325 5.83398 28.2936 5.83398 55.9999V102.666C5.83398 104.599 7.40136 106.167 9.33436 106.167H56.0006C83.7069 106.167 106.167 83.7062 106.167 55.9999C106.167 28.2936 83.7069 5.83325 56.0006 5.83325ZM12.834 55.9999C12.834 32.1596 32.1603 12.8333 56.0006 12.8333C79.841 12.8333 99.1673 32.1596 99.1673 55.9999C99.1673 79.8402 79.841 99.1666 56.0006 99.1666H12.834V55.9999Z" fill="#213543"/>
</g>
</g>
</svg>
