<svg width="112" height="112" viewBox="0 0 112 112" fill="none" xmlns="http://www.w3.org/2000/svg">
<path fill-rule="evenodd" clip-rule="evenodd" d="M25.6667 22.1666C25.0223 22.1666 24.5 22.6889 24.5 23.3333V97.9999C24.5 98.6442 25.0223 99.1666 25.6667 99.1666H86.3333C86.9777 99.1666 87.5 98.6442 87.5 97.9999V23.3333C87.5 22.6889 86.9777 22.1666 86.3333 22.1666H25.6667ZM17.5 23.3333C17.5 18.8229 21.1563 15.1666 25.6667 15.1666H86.3333C90.8437 15.1666 94.5 18.8229 94.5 23.3333V97.9999C94.5 102.51 90.8437 106.167 86.3333 106.167H25.6667C21.1563 106.167 17.5 102.51 17.5 97.9999V23.3333Z" fill="#213543"/>
<path fill-rule="evenodd" clip-rule="evenodd" d="M42 5.83325C43.933 5.83325 45.5 7.40026 45.5 9.33325V23.3333C45.5 25.2662 43.933 26.8333 42 26.8333C40.067 26.8333 38.5 25.2662 38.5 23.3333V9.33325C38.5 7.40026 40.067 5.83325 42 5.83325Z" fill="#213543"/>
<path fill-rule="evenodd" clip-rule="evenodd" d="M70 5.83325C71.933 5.83325 73.5 7.40026 73.5 9.33325V23.3333C73.5 25.2662 71.933 26.8333 70 26.8333C68.067 26.8333 66.5 25.2662 66.5 23.3333V9.33325C66.5 7.40026 68.067 5.83325 70 5.83325Z" fill="#213543"/>
<path fill-rule="evenodd" clip-rule="evenodd" d="M33.8333 44.3333C33.8333 42.4003 35.4003 40.8333 37.3333 40.8333H74.6667C76.5997 40.8333 78.1667 42.4003 78.1667 44.3333C78.1667 46.2662 76.5997 47.8333 74.6667 47.8333H37.3333C35.4003 47.8333 33.8333 46.2662 33.8333 44.3333Z" fill="#213543"/>
<path fill-rule="evenodd" clip-rule="evenodd" d="M33.8333 62.9999C33.8333 61.0669 35.4003 59.4999 37.3333 59.4999H65.3333C67.2663 59.4999 68.8333 61.0669 68.8333 62.9999C68.8333 64.9329 67.2663 66.4999 65.3333 66.4999H37.3333C35.4003 66.4999 33.8333 64.9329 33.8333 62.9999Z" fill="#213543"/>
<path fill-rule="evenodd" clip-rule="evenodd" d="M33.8333 81.6666C33.8333 79.7336 35.4003 78.1666 37.3333 78.1666H56C57.933 78.1666 59.5 79.7336 59.5 81.6666C59.5 83.5996 57.933 85.1666 56 85.1666H37.3333C35.4003 85.1666 33.8333 83.5996 33.8333 81.6666Z" fill="#213543"/>
</svg>
