<svg width="264" height="208" viewBox="0 0 264 208" fill="none" xmlns="http://www.w3.org/2000/svg">
<path d="M2.752 175.064C2.34667 175.064 2.00533 174.925 1.728 174.648C1.46133 174.371 1.328 174.029 1.328 173.624C1.328 173.229 1.46133 172.899 1.728 172.632C2.00533 172.355 2.34667 172.216 2.752 172.216C3.14667 172.216 3.48267 172.355 3.76 172.632C4.03733 172.899 4.176 173.229 4.176 173.624C4.176 174.029 4.03733 174.371 3.76 174.648C3.49333 174.925 3.15733 175.064 2.752 175.064ZM9.564 175C8.90267 175 8.32667 174.856 7.836 174.568C7.34533 174.269 6.96667 173.875 6.7 173.384C6.444 172.893 6.316 172.36 6.316 171.784C6.316 171.528 6.33733 171.293 6.38 171.08C6.43333 170.781 6.50267 170.424 6.588 170.008C6.67333 169.592 6.75333 169.229 6.828 168.92L8.7 169.384L8.588 169.896C8.37467 170.728 8.268 171.304 8.268 171.624C8.268 171.955 8.38 172.216 8.604 172.408C8.828 172.6 9.148 172.696 9.564 172.696H16.524C16.9613 172.696 17.2707 172.637 17.452 172.52C17.6333 172.392 17.724 172.179 17.724 171.88V169.64H19.772V171.96C19.772 172.237 19.8413 172.429 19.98 172.536C20.1293 172.643 20.364 172.696 20.684 172.696H21.164L21.26 173.88L21.164 175H20.684C20.3427 175 19.9907 174.936 19.628 174.808C19.276 174.669 18.9613 174.461 18.684 174.184C18.4387 174.461 18.1293 174.669 17.756 174.808C17.3827 174.936 16.972 175 16.524 175H9.564ZM10.844 167.304H12.748V169.224H10.844V167.304ZM13.852 167.304H15.756V169.224H13.852V167.304ZM20.9981 172.696H22.1661C22.5395 172.696 22.8061 172.621 22.9661 172.472C23.1368 172.312 23.2221 172.061 23.2221 171.72V169.64H25.2541V171.768C25.2541 172.088 25.3395 172.323 25.5101 172.472C25.6915 172.621 25.9368 172.696 26.2461 172.696C26.9395 172.696 27.2861 172.36 27.2861 171.688V169.64H29.3181L29.3021 171.768C29.3021 172.387 29.6221 172.696 30.2621 172.696C30.5928 172.696 30.8541 172.605 31.0461 172.424C31.2488 172.243 31.3288 172.003 31.2861 171.704C31.1368 170.733 30.9821 169.859 30.8221 169.08L32.7421 168.6C33.1048 170.168 33.2861 171.283 33.2861 171.944C33.2861 172.477 33.1795 172.979 32.9661 173.448C32.7528 173.907 32.4221 174.28 31.9741 174.568C31.5261 174.856 30.9555 175 30.2621 175C29.8568 175 29.4835 174.92 29.1421 174.76C28.8008 174.589 28.5128 174.365 28.2781 174.088C28.0328 174.365 27.7288 174.589 27.3661 174.76C27.0141 174.92 26.6195 175 26.1821 175C25.8195 175 25.4355 174.909 25.0301 174.728C24.6355 174.547 24.3475 174.333 24.1661 174.088C23.9741 174.355 23.6915 174.573 23.3181 174.744C22.9555 174.915 22.5448 175 22.0861 175H20.9981V172.696ZM35.3418 164.312H37.3738V175H35.3418V164.312ZM48.3015 167.352L49.2615 171.304C49.3788 171.827 49.6135 172.189 49.9655 172.392C50.3175 172.595 50.7708 172.696 51.3255 172.696H51.6455L51.7735 173.816L51.6455 175H51.3255C50.6428 175 49.9868 174.856 49.3575 174.568C48.7388 174.28 48.2322 173.827 47.8375 173.208C47.5282 173.581 47.1708 173.869 46.7655 174.072C46.3708 174.264 45.9548 174.36 45.5175 174.36C44.9735 174.36 44.4402 174.211 43.9175 173.912C43.3735 173.624 42.9575 173.208 42.6695 172.664C42.3815 172.109 42.2375 171.528 42.2375 170.92C42.2375 170.28 42.3868 169.715 42.6855 169.224C42.8562 168.915 43.0428 168.659 43.2455 168.456C43.4588 168.243 43.7788 168.013 44.2055 167.768C44.6428 167.523 45.2668 167.224 46.0775 166.872L45.8695 165.992L47.8535 165.48L48.3015 167.352ZM44.4455 170.408C44.3282 170.579 44.2695 170.771 44.2695 170.984C44.2695 171.165 44.3122 171.347 44.3975 171.528C44.4935 171.699 44.6268 171.837 44.7975 171.944C45.0002 172.083 45.2348 172.152 45.5015 172.152C45.6935 172.152 45.8802 172.109 46.0615 172.024C46.2535 171.939 46.4242 171.816 46.5735 171.656C46.8082 171.411 46.9255 171.08 46.9255 170.664C46.9255 170.589 46.9148 170.456 46.8935 170.264L46.6055 169.08C45.8802 169.379 45.3682 169.624 45.0695 169.816C44.7708 170.008 44.5628 170.205 44.4455 170.408ZM56.5545 169.64V171.96C56.5545 172.237 56.6292 172.429 56.7785 172.536C56.9278 172.643 57.1625 172.696 57.4825 172.696H58.3465L58.4425 173.912L58.3465 175H57.4825C57.1518 175 56.8052 174.936 56.4425 174.808C56.0798 174.669 55.7598 174.472 55.4825 174.216C55.1838 174.472 54.8425 174.669 54.4585 174.808C54.0852 174.936 53.7012 175 53.3065 175H51.4825V172.696H53.3065C53.7545 172.696 54.0692 172.637 54.2505 172.52C54.4318 172.392 54.5225 172.179 54.5225 171.88V169.64H56.5545ZM51.8985 165.864H53.8025V167.768H51.8985V165.864ZM54.8905 165.864H56.8105V167.768H54.8905V165.864ZM58.1856 172.696H60.8096C61.3643 172.696 61.791 172.675 62.0896 172.632C62.399 172.589 62.6336 172.509 62.7936 172.392L61.7696 172.232C60.8523 172.061 60.159 171.731 59.6896 171.24C59.231 170.749 59.0016 170.024 59.0016 169.064C59.0016 168.392 59.135 167.8 59.4016 167.288C59.679 166.765 60.047 166.365 60.5056 166.088C60.975 165.811 61.4923 165.672 62.0576 165.672C62.6656 165.672 63.199 165.811 63.6576 166.088C64.127 166.365 64.4896 166.76 64.7456 167.272C65.0016 167.784 65.1296 168.381 65.1296 169.064V170.328C65.1296 171.736 64.799 172.867 64.1376 173.72C63.4763 174.573 62.367 175 60.8096 175H58.1856V172.696ZM60.9376 169.048C60.9376 169.315 61.0176 169.533 61.1776 169.704C61.3376 169.864 61.6043 169.987 61.9776 170.072L63.2096 170.392V169.048C63.2096 168.685 63.1136 168.387 62.9216 168.152C62.7403 167.917 62.4576 167.8 62.0736 167.8C61.7003 167.8 61.4176 167.917 61.2256 168.152C61.0336 168.387 60.9376 168.685 60.9376 169.048ZM61.0176 162.68H63.1456V164.76H61.0176V162.68ZM69.8195 169.64V171.96C69.8195 172.237 69.8888 172.429 70.0275 172.536C70.1768 172.643 70.4115 172.696 70.7315 172.696H71.0355L71.1315 173.864L71.0355 175H70.7315C70.3795 175 70.0702 174.915 69.8035 174.744C69.6968 176.109 69.2488 177.165 68.4595 177.912C67.6702 178.659 66.5822 179.032 65.1955 179.032H64.1875V176.728H65.1955C65.8675 176.728 66.3848 176.648 66.7475 176.488C67.1208 176.339 67.3822 176.077 67.5315 175.704C67.6915 175.341 67.7715 174.824 67.7715 174.152V169.64H69.8195ZM78.5691 165.8L74.3291 167.688L76.0731 169.864C76.7665 170.739 77.2625 171.347 77.5611 171.688C77.8598 172.019 78.1531 172.269 78.4411 172.44C78.7291 172.611 79.0598 172.696 79.4331 172.696H79.7051V175H79.4331C78.8785 175 78.3878 174.893 77.9611 174.68C77.5451 174.456 77.0865 174.083 76.5851 173.56C76.3611 174.008 76.0251 174.36 75.5771 174.616C75.1398 174.872 74.6065 175 73.9771 175H70.8731V172.696H74.0251C74.3025 172.696 74.5158 172.643 74.6651 172.536C74.8145 172.429 74.8891 172.285 74.8891 172.104C74.8891 171.912 74.7825 171.683 74.5691 171.416L72.1211 168.552L72.6171 165.976L77.7531 163.704L78.5691 165.8ZM72.8731 164.12L76.8731 162.376L77.1611 163.144L72.7771 165.048L72.8731 164.12ZM79.529 172.696H81.081C81.9023 172.696 82.297 172.376 82.265 171.736C82.233 171.267 82.0943 170.381 81.849 169.08L83.753 168.6C84.1157 170.168 84.297 171.288 84.297 171.96C84.297 172.483 84.1797 172.979 83.945 173.448C83.721 173.907 83.3743 174.28 82.905 174.568C82.4463 174.856 81.8917 175 81.241 175H79.529V172.696ZM80.921 164.744H83.049V166.824H80.921V164.744ZM91.7269 170.456C91.1082 171.843 90.7989 173.043 90.7989 174.056C90.7989 174.963 91.0122 175.635 91.4389 176.072C91.8655 176.509 92.5802 176.728 93.5829 176.728H95.1669C95.8282 176.728 96.3242 176.675 96.6549 176.568C96.9962 176.461 97.2309 176.285 97.3589 176.04C97.4975 175.795 97.5775 175.448 97.5989 175H96.2389C95.2149 175 94.4095 174.707 93.8229 174.12C93.2362 173.523 92.9429 172.691 92.9429 171.624C92.9429 170.867 93.0815 170.195 93.3589 169.608C93.6362 169.021 94.0202 168.568 94.5109 168.248C95.0122 167.917 95.5829 167.752 96.2229 167.752C96.8949 167.752 97.4869 167.912 97.9989 168.232C98.5215 168.552 98.9215 169.005 99.1989 169.592C99.4869 170.179 99.6309 170.856 99.6309 171.624V172.696H100.527L100.655 173.864L100.527 175H99.6309C99.5882 176.205 99.2042 177.176 98.4789 177.912C97.7642 178.659 96.6602 179.032 95.1669 179.032H93.5829C92.0255 179.032 90.8469 178.616 90.0469 177.784C89.2469 176.963 88.8469 175.779 88.8469 174.232C88.8469 173.347 88.9589 172.541 89.1829 171.816C89.4069 171.091 89.6682 170.371 89.9669 169.656L91.7269 170.456ZM93.6789 164.52H95.5829V166.44H93.6789V164.52ZM94.8789 171.512C94.8789 171.949 94.9855 172.275 95.1989 172.488C95.4122 172.691 95.7589 172.792 96.2389 172.792H97.5989V171.576C97.5989 170.467 97.1402 169.912 96.2229 169.912C95.7855 169.912 95.4495 170.061 95.2149 170.36C94.9909 170.659 94.8789 171.043 94.8789 171.512ZM96.6709 164.52H98.5909V166.44H96.6709V164.52ZM100.373 172.696H101.189C101.52 172.696 101.765 172.637 101.925 172.52C102.085 172.403 102.165 172.189 102.165 171.88V164.312H104.197V171.88V171.96C104.197 172.237 104.272 172.429 104.421 172.536C104.57 172.643 104.805 172.696 105.125 172.696H105.589L105.701 173.928L105.589 175H105.125C104.794 175 104.458 174.936 104.117 174.808C103.786 174.68 103.493 174.488 103.237 174.232C102.949 174.488 102.624 174.68 102.261 174.808C101.909 174.936 101.568 175 101.237 175H100.373V172.696ZM105.436 172.696H106.172C107.036 172.696 107.772 172.637 108.38 172.52L107.724 171.608C107.233 170.904 106.849 170.371 106.572 170.008L107.74 167.816H112.108C112.545 167.816 112.924 167.917 113.244 168.12C113.564 168.312 113.809 168.573 113.98 168.904C114.161 169.224 114.252 169.576 114.252 169.96C114.252 170.621 114.017 171.208 113.548 171.72L112.62 172.616C112.918 172.669 113.308 172.696 113.788 172.696H115.164L115.292 173.864L115.164 175H112.988C112.486 175 112.038 174.931 111.644 174.792C111.26 174.653 110.865 174.445 110.46 174.168C109.446 174.723 108.289 175 106.988 175H105.436V172.696ZM109.692 171.048L110.556 172.232C110.972 171.816 111.324 171.443 111.612 171.112L112.092 170.6C112.198 170.493 112.252 170.381 112.252 170.264C112.252 170.147 112.204 170.051 112.108 169.976C112.022 169.901 111.9 169.864 111.74 169.864H108.828L109.692 171.048ZM114.966 172.696H116.743C117.223 172.696 117.564 172.616 117.767 172.456C117.969 172.285 118.06 172.045 118.039 171.736C117.985 171.075 117.847 170.189 117.623 169.08L119.543 168.6C119.671 169.165 119.788 169.768 119.895 170.408C120.012 171.048 120.071 171.565 120.071 171.96C120.071 172.493 119.953 172.989 119.719 173.448C119.484 173.907 119.127 174.28 118.647 174.568C118.177 174.856 117.596 175 116.903 175H114.966V172.696ZM115.415 164.92H117.319V166.824H115.415V164.92ZM118.407 164.92H120.327V166.824H118.407V164.92ZM128.242 175C127.122 175 126.295 174.675 125.762 174.024C125.239 173.373 124.978 172.499 124.978 171.4V164.312H127.01V171.4C127.01 171.805 127.031 172.093 127.074 172.264C127.127 172.435 127.234 172.552 127.394 172.616C127.565 172.669 127.847 172.696 128.242 172.696H128.818L128.914 173.88L128.818 175H128.242ZM128.654 172.696H129.07C129.284 172.696 129.444 172.648 129.55 172.552C129.668 172.445 129.753 172.275 129.806 172.04L130.222 170.504C130.457 169.576 130.852 168.867 131.406 168.376C131.961 167.885 132.628 167.64 133.406 167.64C134.025 167.64 134.574 167.811 135.054 168.152C135.545 168.483 135.929 168.947 136.206 169.544C136.484 170.131 136.622 170.792 136.622 171.528C136.622 171.869 136.649 172.12 136.702 172.28C136.766 172.44 136.868 172.552 137.006 172.616C137.145 172.669 137.358 172.696 137.646 172.696H137.886L138.014 173.816L137.886 175H137.646C136.868 175 136.238 174.787 135.758 174.36C135.481 174.669 135.166 174.899 134.814 175.048C134.473 175.208 134.121 175.288 133.758 175.288C133.396 175.288 133.012 175.213 132.606 175.064C132.212 174.925 131.62 174.669 130.83 174.296C130.585 174.52 130.313 174.696 130.014 174.824C129.716 174.941 129.412 175 129.102 175H128.654V172.696ZM131.806 172.36C132.382 172.627 132.809 172.808 133.086 172.904C133.364 173 133.614 173.048 133.838 173.048C134.425 173.048 134.718 172.547 134.718 171.544C134.718 171 134.601 170.584 134.366 170.296C134.132 169.997 133.828 169.848 133.454 169.848C133.145 169.848 132.873 169.96 132.638 170.184C132.404 170.408 132.233 170.733 132.126 171.16L131.806 172.36ZM137.717 172.696H138.885C139.258 172.696 139.525 172.621 139.685 172.472C139.856 172.312 139.941 172.061 139.941 171.72V169.64H141.973V171.768C141.973 172.088 142.058 172.323 142.229 172.472C142.41 172.621 142.656 172.696 142.965 172.696C143.658 172.696 144.005 172.36 144.005 171.688V169.64H146.037L146.021 171.768C146.021 172.387 146.341 172.696 146.981 172.696C147.312 172.696 147.573 172.605 147.765 172.424C147.968 172.243 148.048 172.003 148.005 171.704C147.856 170.733 147.701 169.859 147.541 169.08L149.461 168.6C149.824 170.168 150.005 171.283 150.005 171.944C150.005 172.477 149.898 172.979 149.685 173.448C149.472 173.907 149.141 174.28 148.693 174.568C148.245 174.856 147.674 175 146.981 175C146.576 175 146.202 174.92 145.861 174.76C145.52 174.589 145.232 174.365 144.997 174.088C144.752 174.365 144.448 174.589 144.085 174.76C143.733 174.92 143.338 175 142.901 175C142.538 175 142.154 174.909 141.749 174.728C141.354 174.547 141.066 174.333 140.885 174.088C140.693 174.355 140.41 174.573 140.037 174.744C139.674 174.915 139.264 175 138.805 175H137.717V172.696ZM142.597 165.832H144.517V167.736H142.597V165.832ZM144.165 163.528H145.973V165.352H144.165V163.528ZM145.637 165.832H147.541V167.736H145.637V165.832ZM160.723 167.352L161.683 171.304C161.801 171.827 162.035 172.189 162.387 172.392C162.739 172.595 163.193 172.696 163.747 172.696H164.067L164.195 173.816L164.067 175H163.747C163.065 175 162.409 174.856 161.779 174.568C161.161 174.28 160.654 173.827 160.259 173.208C159.95 173.581 159.593 173.869 159.187 174.072C158.793 174.264 158.377 174.36 157.939 174.36C157.395 174.36 156.862 174.211 156.339 173.912C155.795 173.624 155.379 173.208 155.091 172.664C154.803 172.109 154.659 171.528 154.659 170.92C154.659 170.28 154.809 169.715 155.107 169.224C155.278 168.915 155.465 168.659 155.667 168.456C155.881 168.243 156.201 168.013 156.627 167.768C157.065 167.523 157.689 167.224 158.499 166.872L158.291 165.992L160.275 165.48L160.723 167.352ZM156.867 170.408C156.75 170.579 156.691 170.771 156.691 170.984C156.691 171.165 156.734 171.347 156.819 171.528C156.915 171.699 157.049 171.837 157.219 171.944C157.422 172.083 157.657 172.152 157.923 172.152C158.115 172.152 158.302 172.109 158.483 172.024C158.675 171.939 158.846 171.816 158.995 171.656C159.23 171.411 159.347 171.08 159.347 170.664C159.347 170.589 159.337 170.456 159.315 170.264L159.027 169.08C158.302 169.379 157.79 169.624 157.491 169.816C157.193 170.008 156.985 170.205 156.867 170.408ZM163.888 172.696H165.44C166.262 172.696 166.656 172.376 166.624 171.736C166.592 171.267 166.454 170.381 166.208 169.08L168.112 168.6C168.475 170.168 168.656 171.288 168.656 171.96C168.656 172.483 168.539 172.979 168.304 173.448C168.08 173.907 167.734 174.28 167.264 174.568C166.806 174.856 166.251 175 165.6 175H163.888V172.696ZM163.584 176.936H165.712V179.016H163.584V176.936ZM176.07 170.968C175.494 172.269 175.206 173.341 175.206 174.184C175.206 175.037 175.404 175.672 175.798 176.088C176.193 176.515 176.844 176.728 177.75 176.728H179.126C179.734 176.728 180.204 176.685 180.534 176.6C180.865 176.515 181.1 176.381 181.238 176.2C181.388 176.019 181.478 175.773 181.51 175.464V175.368C181.51 175.315 181.494 175.272 181.462 175.24C181.441 175.219 181.393 175.203 181.318 175.192L177.702 174.2C177.574 173.731 177.51 173.224 177.51 172.68C177.51 172.029 177.612 171.416 177.814 170.84C178.028 170.264 178.31 169.773 178.662 169.368C179.11 168.867 179.606 168.483 180.15 168.216C180.705 167.949 181.292 167.816 181.91 167.816C182.23 167.816 182.561 167.848 182.902 167.912C183.254 167.965 183.542 168.04 183.766 168.136L183.286 170.2C182.945 170.104 182.577 170.056 182.182 170.056C181.777 170.056 181.404 170.125 181.062 170.264C180.732 170.392 180.449 170.573 180.214 170.808C179.734 171.267 179.494 171.768 179.494 172.312C179.868 172.408 180.796 172.669 182.278 173.096C182.822 173.256 183.18 173.496 183.35 173.816C183.521 174.125 183.59 174.605 183.558 175.256C183.505 176.44 183.1 177.363 182.342 178.024C181.596 178.696 180.524 179.032 179.126 179.032H177.75C176.812 179.032 175.996 178.819 175.302 178.392C174.62 177.965 174.097 177.384 173.734 176.648C173.382 175.923 173.206 175.112 173.206 174.216C173.206 173.597 173.313 172.915 173.526 172.168C173.75 171.421 174.017 170.717 174.326 170.056L176.07 170.968ZM186.014 164.312H188.046V175H186.014V164.312ZM195.981 165.784C196.333 166.179 196.669 166.547 196.989 166.888C197.779 167.752 198.365 168.419 198.749 168.888C199.144 169.357 199.453 169.832 199.677 170.312C199.901 170.781 200.013 171.272 200.013 171.784C200.013 172.392 199.853 172.957 199.533 173.48C199.213 173.992 198.781 174.397 198.237 174.696C197.704 174.995 197.117 175.144 196.477 175.144C195.827 175.144 195.229 174.995 194.685 174.696C194.141 174.397 193.709 173.992 193.389 173.48C193.069 172.957 192.909 172.392 192.909 171.784C192.909 171.048 193.091 170.387 193.453 169.8C193.827 169.203 194.376 168.52 195.101 167.752L194.557 167.16L195.981 165.784ZM194.941 171.592C194.941 171.955 195.075 172.264 195.341 172.52C195.608 172.776 195.987 172.904 196.477 172.904C196.957 172.904 197.325 172.776 197.581 172.52C197.848 172.264 197.981 171.955 197.981 171.592C197.981 171.336 197.869 171.048 197.645 170.728C197.432 170.397 197.037 169.901 196.461 169.24C195.896 169.837 195.501 170.296 195.277 170.616C195.053 170.936 194.941 171.261 194.941 171.592ZM205.46 169.64V174.152C205.46 175.688 205.06 176.883 204.26 177.736C203.46 178.6 202.319 179.032 200.836 179.032H199.828V176.728H200.836C201.508 176.728 202.025 176.648 202.388 176.488C202.761 176.339 203.023 176.077 203.172 175.704C203.332 175.341 203.412 174.824 203.412 174.152V169.64H205.46ZM201.732 165.848H203.636V167.768H201.732V165.848ZM203.3 163.544H205.108V165.368H203.3V163.544ZM204.772 165.848H206.676V167.768H204.772V165.848ZM209.727 176.728C210.388 176.728 210.89 176.669 211.231 176.552C211.572 176.445 211.807 176.259 211.935 175.992C212.074 175.736 212.154 175.368 212.175 174.888H210.799C209.786 174.888 208.98 174.595 208.383 174.008C207.796 173.411 207.503 172.579 207.503 171.512C207.503 170.755 207.642 170.083 207.919 169.496C208.207 168.899 208.596 168.44 209.087 168.12C209.588 167.8 210.154 167.64 210.783 167.64C211.466 167.64 212.063 167.8 212.575 168.12C213.098 168.44 213.498 168.893 213.775 169.48C214.063 170.067 214.207 170.744 214.207 171.512V174.648C214.207 175.971 213.844 177.032 213.119 177.832C212.404 178.632 211.274 179.032 209.727 179.032H207.823V176.728H209.727ZM209.455 171.4C209.455 171.837 209.562 172.163 209.775 172.376C209.988 172.579 210.33 172.68 210.799 172.68H212.175V171.464C212.175 170.355 211.711 169.8 210.783 169.8C210.346 169.8 210.015 169.949 209.791 170.248C209.567 170.547 209.455 170.931 209.455 171.4ZM220.445 169.64V171.96C220.445 172.237 220.514 172.429 220.653 172.536C220.802 172.643 221.037 172.696 221.357 172.696H221.661L221.757 173.864L221.661 175H221.357C221.005 175 220.695 174.915 220.429 174.744C220.322 176.109 219.874 177.165 219.085 177.912C218.295 178.659 217.207 179.032 215.821 179.032H214.812V176.728H215.821C216.493 176.728 217.01 176.648 217.373 176.488C217.746 176.339 218.007 176.077 218.157 175.704C218.317 175.341 218.397 174.824 218.397 174.152V169.64H220.445ZM221.514 172.696H223.946C224.821 172.696 225.258 172.408 225.258 171.832C225.258 171.437 225.119 170.52 224.842 169.08L226.746 168.6C227.109 170.168 227.29 171.288 227.29 171.96C227.29 172.493 227.173 172.989 226.938 173.448C226.703 173.907 226.346 174.28 225.866 174.568C225.386 174.856 224.805 175 224.122 175H221.514V172.696ZM222.026 176.248H223.93V178.168H222.026V176.248ZM223.594 178.648H225.402V180.472H223.594V178.648ZM225.05 176.248H226.97V178.168H225.05V176.248ZM236.773 169.64V174.152C236.773 175.688 236.373 176.883 235.573 177.736C234.773 178.6 233.631 179.032 232.149 179.032H231.141V176.728H232.149C232.821 176.728 233.338 176.648 233.701 176.488C234.074 176.339 234.335 176.077 234.485 175.704C234.645 175.341 234.725 174.824 234.725 174.152V169.64H236.773ZM234.661 165.656H236.789V167.736H234.661V165.656ZM240.415 176.84C241.076 176.84 241.577 176.781 241.919 176.664C242.26 176.557 242.495 176.371 242.623 176.104C242.761 175.848 242.841 175.48 242.863 175H241.487C240.473 175 239.668 174.707 239.071 174.12C238.484 173.523 238.191 172.691 238.191 171.624C238.191 170.867 238.329 170.195 238.607 169.608C238.895 169.021 239.284 168.568 239.775 168.248C240.276 167.917 240.841 167.752 241.471 167.752C242.153 167.752 242.751 167.912 243.263 168.232C243.785 168.552 244.185 169.005 244.463 169.592C244.751 170.179 244.895 170.856 244.895 171.624V172.696H245.775L245.903 173.864L245.775 175H244.895C244.852 176.248 244.468 177.251 243.743 178.008C243.017 178.765 241.908 179.144 240.415 179.144H238.511V176.84H240.415ZM240.143 171.512C240.143 171.949 240.249 172.275 240.463 172.488C240.676 172.691 241.017 172.792 241.487 172.792H242.863V171.576C242.863 170.467 242.399 169.912 241.471 169.912C241.033 169.912 240.703 170.061 240.479 170.36C240.255 170.659 240.143 171.043 240.143 171.512ZM250.248 169.64V171.96C250.248 172.237 250.322 172.429 250.472 172.536C250.621 172.643 250.856 172.696 251.176 172.696H251.656L251.752 173.928L251.656 175H251.176C250.845 175 250.498 174.936 250.136 174.808C249.773 174.669 249.453 174.472 249.176 174.216C248.888 174.472 248.552 174.669 248.168 174.808C247.794 174.936 247.41 175 247.016 175H245.607V172.696H247.016C247.453 172.696 247.762 172.637 247.944 172.52C248.125 172.392 248.216 172.179 248.216 171.88V169.64H250.248ZM247.528 165.672H249.656V167.752H247.528V165.672ZM260.234 166.152L262.794 170.008C263.189 170.605 263.386 171.272 263.386 172.008C263.386 172.68 263.221 173.245 262.89 173.704C262.527 174.195 262.005 174.547 261.322 174.76C260.65 174.973 259.749 175.08 258.618 175.08C257.615 175.08 256.634 174.915 255.674 174.584C254.778 174.861 253.818 175 252.794 175H251.498V172.696H252.89H252.954C252.527 172.099 252.314 171.453 252.314 170.76C252.314 170.109 252.463 169.507 252.762 168.952C253.071 168.387 253.487 167.939 254.01 167.608C254.543 167.277 255.13 167.112 255.77 167.112C256.389 167.112 256.959 167.277 257.482 167.608C258.005 167.939 258.415 168.381 258.714 168.936C259.013 169.491 259.162 170.093 259.162 170.744C259.162 171.501 258.933 172.184 258.474 172.792H258.538C259.37 172.792 259.978 172.755 260.362 172.68C260.746 172.605 261.002 172.493 261.13 172.344C261.237 172.216 261.29 172.072 261.29 171.912C261.29 171.677 261.194 171.421 261.002 171.144L258.522 167.416L260.234 166.152ZM254.346 170.792C254.346 171.101 254.463 171.389 254.698 171.656C254.943 171.912 255.274 172.131 255.69 172.312C256.159 172.141 256.517 171.928 256.762 171.672C257.007 171.416 257.13 171.123 257.13 170.792C257.13 170.355 257.002 169.997 256.746 169.72C256.49 169.443 256.165 169.304 255.77 169.304C255.354 169.304 255.013 169.443 254.746 169.72C254.479 169.997 254.346 170.355 254.346 170.792Z" fill="#213543"/>
<path d="M13.764 200C13.564 200 13.392 199.932 13.248 199.796C13.112 199.652 13.044 199.48 13.044 199.28C13.044 199.08 13.112 198.912 13.248 198.776C13.392 198.632 13.564 198.56 13.764 198.56C13.964 198.56 14.132 198.632 14.268 198.776C14.412 198.912 14.484 199.08 14.484 199.28C14.484 199.48 14.412 199.652 14.268 199.796C14.132 199.932 13.964 200 13.764 200ZM19.3913 194.084C19.4793 194.292 19.7553 194.896 20.2193 195.896L20.6513 196.844C20.6513 196.844 20.6513 196.848 20.6513 196.856C20.6593 196.856 20.6633 196.856 20.6633 196.856C20.8953 197.376 21.0953 197.78 21.2633 198.068C21.4393 198.356 21.6233 198.572 21.8153 198.716C22.0073 198.852 22.2313 198.92 22.4873 198.92H22.6793L22.7393 199.496L22.6793 200H22.4873C22.1353 200 21.8193 199.92 21.5393 199.76C21.2673 199.592 21.0073 199.352 20.7593 199.04L20.7233 199.1C20.3073 199.7 19.6513 200 18.7553 200H18.1433C17.7113 200 17.3273 199.936 16.9913 199.808C16.6553 199.672 16.3673 199.52 16.1273 199.352L16.6193 198.44C16.8593 198.584 17.0873 198.7 17.3033 198.788C17.5193 198.876 17.7993 198.92 18.1433 198.92H18.7553C19.0433 198.92 19.2873 198.888 19.4873 198.824C19.6873 198.752 19.8433 198.636 19.9553 198.476C20.0353 198.372 20.0753 198.252 20.0753 198.116C20.0753 197.996 20.0313 197.828 19.9433 197.612L19.7993 197.288L19.4273 196.484C19.0753 195.732 18.7753 195.084 18.5273 194.54L19.3913 194.084ZM22.5572 198.92H24.1772C25.0012 198.92 25.4132 198.644 25.4132 198.092C25.4132 197.876 25.3732 197.552 25.2932 197.12C25.2212 196.68 25.1372 196.252 25.0412 195.836L25.9532 195.596C26.0492 196.004 26.1372 196.452 26.2172 196.94C26.3052 197.428 26.3492 197.808 26.3492 198.08C26.3492 198.416 26.2692 198.732 26.1092 199.028C25.9492 199.316 25.7052 199.552 25.3772 199.736C25.0492 199.912 24.6492 200 24.1772 200H22.5572V198.92ZM22.0892 201.836H23.2892V203.036H22.0892V201.836ZM24.2372 201.836H25.4372V203.036H24.2372V201.836ZM30.3967 196.304V198.008C30.3967 198.336 30.4767 198.572 30.6367 198.716C30.7967 198.852 31.0487 198.92 31.3927 198.92H31.5127L31.5847 199.472L31.5127 200H31.3927C30.9847 200 30.6527 199.888 30.3967 199.664V199.688C30.3967 200.768 30.1247 201.592 29.5807 202.16C29.0367 202.736 28.2527 203.024 27.2287 203.024H26.4727V201.944H27.2287C28.0287 201.944 28.6007 201.772 28.9447 201.428C29.2887 201.084 29.4607 200.504 29.4607 199.688V196.304H30.3967ZM34.8131 196.304V198.008C34.8131 198.336 34.8931 198.572 35.0531 198.716C35.2131 198.852 35.4651 198.92 35.8091 198.92H36.4211L36.4811 199.484L36.4211 200H35.8091C35.5531 200 35.2851 199.936 35.0051 199.808C34.7251 199.68 34.4891 199.488 34.2971 199.232C34.1051 199.48 33.8611 199.672 33.5651 199.808C33.2691 199.936 32.9691 200 32.6651 200H31.3931V198.92H32.6651C33.0731 198.92 33.3771 198.836 33.5771 198.668C33.7771 198.5 33.8771 198.232 33.8771 197.864V196.304H34.8131ZM31.7291 201.836H32.9291V203.036H31.7291V201.836ZM33.8771 201.836H35.0771V203.036H33.8771V201.836ZM41.9433 193.172L38.3433 194.768L39.9033 196.7L39.9753 196.796C40.5273 197.5 40.9193 197.984 41.1513 198.248C41.3833 198.504 41.5993 198.68 41.7993 198.776C41.9993 198.872 42.2673 198.92 42.6033 198.92H42.8313V200H42.6033C42.1153 200 41.7113 199.912 41.3913 199.736C41.0793 199.56 40.7273 199.24 40.3353 198.776C40.2233 199.136 40.0153 199.432 39.7113 199.664C39.4073 199.888 39.0193 200 38.5473 200H36.3033V198.92H38.5473C38.8993 198.92 39.1633 198.86 39.3393 198.74C39.5153 198.62 39.6033 198.456 39.6033 198.248C39.6033 198.008 39.4793 197.74 39.2313 197.444L37.3233 195.188L37.6113 193.928L41.5593 192.188L41.9433 193.172ZM37.7793 192.56L40.9353 191.18L41.1153 191.636L37.7193 193.124L37.7793 192.56ZM42.7134 198.92H44.0334C44.3774 198.92 44.6334 198.848 44.8014 198.704C44.9694 198.552 45.0534 198.348 45.0534 198.092C45.0534 197.884 45.0134 197.56 44.9334 197.12C44.8614 196.672 44.7774 196.244 44.6814 195.836L45.5934 195.596C45.6894 196.004 45.7774 196.452 45.8574 196.94C45.9454 197.428 45.9894 197.808 45.9894 198.08C45.9894 198.408 45.9134 198.72 45.7614 199.016C45.6094 199.312 45.3854 199.552 45.0894 199.736C44.7934 199.912 44.4414 200 44.0334 200H42.7134V198.92ZM43.0134 201.824H44.2134V203.024H43.0134V201.824ZM51.79 196.976C51.342 197.888 51.118 198.736 51.118 199.52C51.118 200.248 51.294 200.832 51.646 201.272C52.006 201.72 52.55 201.944 53.278 201.944H54.562C55.106 201.944 55.53 201.88 55.834 201.752C56.138 201.632 56.354 201.436 56.482 201.164C56.61 200.9 56.674 200.536 56.674 200.072V196.304H57.61V197.576C57.61 198.088 57.706 198.44 57.898 198.632C58.098 198.824 58.378 198.92 58.738 198.92C59.13 198.92 59.406 198.836 59.566 198.668C59.734 198.5 59.818 198.232 59.818 197.864V196.304H60.754V198.008C60.754 198.328 60.83 198.56 60.982 198.704C61.142 198.84 61.386 198.912 61.714 198.92C62.05 198.912 62.298 198.836 62.458 198.692C62.618 198.548 62.698 198.348 62.698 198.092C62.698 197.884 62.658 197.56 62.578 197.12C62.506 196.672 62.422 196.244 62.326 195.836L63.238 195.596C63.334 196.004 63.422 196.452 63.502 196.94C63.59 197.428 63.634 197.808 63.634 198.08C63.634 198.4 63.558 198.708 63.406 199.004C63.262 199.3 63.042 199.54 62.746 199.724C62.458 199.908 62.114 200 61.714 200C61.458 200 61.194 199.94 60.922 199.82C60.658 199.692 60.43 199.496 60.238 199.232C59.846 199.744 59.346 200 58.738 200C58.29 200 57.914 199.868 57.61 199.604V200.072C57.61 201 57.366 201.724 56.878 202.244C56.39 202.764 55.618 203.024 54.562 203.024H53.278C52.614 203.024 52.05 202.86 51.586 202.532C51.122 202.204 50.77 201.772 50.53 201.236C50.298 200.7 50.182 200.128 50.182 199.52C50.182 198.544 50.454 197.552 50.998 196.544L51.79 196.976ZM67.4225 200C66.6305 200 66.0825 199.788 65.7785 199.364C65.4745 198.932 65.3225 198.3 65.3225 197.468L65.3105 192.212H66.2465L66.2585 197.468C66.2585 197.9 66.2825 198.212 66.3305 198.404C66.3865 198.596 66.4905 198.732 66.6425 198.812C66.8025 198.884 67.0625 198.92 67.4225 198.92H67.6025L67.6625 199.472L67.6025 200H67.4225ZM67.4869 198.92H67.8229C68.1989 198.92 68.4309 198.752 68.5189 198.416L68.9029 197.036C69.0789 196.412 69.3509 195.924 69.7189 195.572C70.0869 195.212 70.5309 195.032 71.0509 195.032C71.4669 195.032 71.8349 195.156 72.1549 195.404C72.4749 195.644 72.7229 195.972 72.8989 196.388C73.0749 196.796 73.1629 197.24 73.1629 197.72C73.1629 198.056 73.1909 198.312 73.2469 198.488C73.3029 198.656 73.3829 198.772 73.4869 198.836C73.5909 198.892 73.7349 198.92 73.9189 198.92H74.0389L74.0989 199.46L74.0389 200H73.9189C73.4069 200 73.0149 199.832 72.7429 199.496C72.5749 199.76 72.3749 199.952 72.1429 200.072C71.9109 200.2 71.6669 200.264 71.4109 200.264C71.1069 200.264 70.8029 200.204 70.4989 200.084C70.1949 199.972 69.7149 199.748 69.0589 199.412C68.8989 199.596 68.7109 199.74 68.4949 199.844C68.2789 199.948 68.0549 200 67.8229 200H67.4869V198.92ZM69.5029 198.452C70.0789 198.748 70.4869 198.944 70.7269 199.04C70.9669 199.136 71.1949 199.184 71.4109 199.184C71.6829 199.184 71.8869 199.084 72.0229 198.884C72.1589 198.676 72.2269 198.288 72.2269 197.72C72.2269 197.216 72.1269 196.824 71.9269 196.544C71.7269 196.256 71.4349 196.112 71.0509 196.112C70.7629 196.112 70.5109 196.212 70.2949 196.412C70.0869 196.612 69.9269 196.916 69.8149 197.324L69.5029 198.452ZM73.9205 198.92H75.5405C76.3645 198.92 76.7765 198.644 76.7765 198.092C76.7765 197.876 76.7365 197.552 76.6565 197.12C76.5845 196.68 76.5005 196.252 76.4045 195.836L77.3165 195.596C77.4125 196.004 77.5005 196.452 77.5805 196.94C77.6685 197.428 77.7125 197.808 77.7125 198.08C77.7125 198.416 77.6325 198.732 77.4725 199.028C77.3125 199.316 77.0685 199.552 76.7405 199.736C76.4125 199.912 76.0125 200 75.5405 200H73.9205V198.92ZM74.4605 192.98H75.6605V194.18H74.4605V192.98ZM76.6085 192.98H77.8085V194.18H76.6085V192.98ZM83.5724 196.892C83.0924 197.924 82.8524 198.784 82.8524 199.472C82.8524 200.2 83.0324 200.792 83.3924 201.248C83.7604 201.712 84.2964 201.944 85.0004 201.944H86.2964C86.9044 201.944 87.3964 201.852 87.7724 201.668C88.1484 201.484 88.3364 201.252 88.3364 200.972C88.3364 200.74 88.1924 200.544 87.9044 200.384C87.4484 200.128 86.6764 200 85.5884 200V198.92H89.5724L89.6324 199.46L89.5724 200H88.9124C89.0324 200.096 89.1244 200.224 89.1884 200.384C89.2524 200.544 89.2844 200.72 89.2844 200.912C89.2844 201.256 89.1844 201.588 88.9844 201.908C88.7844 202.228 88.4604 202.492 88.0124 202.7C87.5724 202.916 87.0004 203.024 86.2964 203.024H85.0004C84.3684 203.024 83.8164 202.86 83.3444 202.532C82.8804 202.204 82.5244 201.768 82.2764 201.224C82.0364 200.688 81.9164 200.112 81.9164 199.496C81.9164 198.64 82.1804 197.62 82.7084 196.436L83.5724 196.892ZM89.4478 198.92H90.7678C91.1118 198.92 91.3678 198.848 91.5358 198.704C91.7038 198.552 91.7878 198.348 91.7878 198.092C91.7878 197.884 91.7478 197.56 91.6678 197.12C91.5958 196.672 91.5118 196.244 91.4158 195.836L92.3278 195.596C92.4238 196.004 92.5118 196.452 92.5918 196.94C92.6798 197.428 92.7238 197.808 92.7238 198.08C92.7238 198.408 92.6478 198.72 92.4958 199.016C92.3438 199.312 92.1198 199.552 91.8238 199.736C91.5278 199.912 91.1758 200 90.7678 200H89.4478V198.92ZM90.7438 192.98H91.9438V194.18H90.7438V192.98ZM96.5084 200C95.7164 200 95.1684 199.788 94.8644 199.364C94.5604 198.932 94.4084 198.3 94.4084 197.468L94.3964 192.212H95.3324L95.3444 197.468C95.3444 197.9 95.3684 198.212 95.4164 198.404C95.4724 198.596 95.5764 198.732 95.7284 198.812C95.8884 198.884 96.1484 198.92 96.5084 198.92H96.6884L96.7484 199.472L96.6884 200H96.5084ZM99.7648 196.304V198.008C99.7648 198.336 99.8448 198.572 100.005 198.716C100.165 198.852 100.417 198.92 100.761 198.92H101.205L101.265 199.472L101.205 200H100.761C100.505 200 100.237 199.936 99.9568 199.808C99.6768 199.68 99.4408 199.488 99.2488 199.232C99.0568 199.48 98.8128 199.672 98.5168 199.808C98.2208 199.936 97.9208 200 97.6168 200H96.5728V198.92H97.6168C98.0248 198.92 98.3288 198.836 98.5288 198.668C98.7288 198.5 98.8288 198.232 98.8288 197.864V196.304H99.7648ZM96.7408 201.836H97.9408V203.036H96.7408V201.836ZM104.505 196.304V198.008C104.505 198.336 104.585 198.572 104.745 198.716C104.905 198.852 105.157 198.92 105.501 198.92H106.113L106.173 199.484L106.113 200H105.501C105.245 200 104.977 199.936 104.697 199.808C104.417 199.68 104.181 199.488 103.989 199.232C103.797 199.48 103.553 199.672 103.257 199.808C102.961 199.936 102.661 200 102.357 200H101.085V198.92H102.357C102.765 198.92 103.069 198.836 103.269 198.668C103.469 198.5 103.569 198.232 103.569 197.864V196.304H104.505ZM100.701 201.836H101.901V203.036H100.701V201.836ZM102.849 201.836H104.049V203.036H102.849V201.836ZM109.415 196.304V198.008C109.415 198.336 109.495 198.572 109.655 198.716C109.815 198.852 110.067 198.92 110.411 198.92H111.023L111.083 199.484L111.023 200H110.411C110.155 200 109.887 199.936 109.607 199.808C109.327 199.68 109.091 199.488 108.899 199.232C108.707 199.48 108.463 199.672 108.167 199.808C107.871 199.936 107.571 200 107.267 200H105.995V198.92H107.267C107.675 198.92 107.979 198.836 108.179 198.668C108.379 198.5 108.479 198.232 108.479 197.864V196.304H109.415ZM106.595 193.748H107.795V194.948H106.595V193.748ZM108.743 193.748H109.943V194.948H108.743V193.748ZM116.125 199.232C115.965 199.48 115.757 199.672 115.501 199.808C115.245 199.936 114.961 200 114.649 200C114.361 200 114.073 199.932 113.785 199.796C113.497 199.66 113.277 199.472 113.125 199.232C112.933 199.488 112.709 199.68 112.453 199.808C112.197 199.936 111.925 200 111.637 200H110.905V198.92H111.637C112.029 198.92 112.305 198.844 112.465 198.692C112.625 198.532 112.705 198.256 112.705 197.864V196.304H113.641V197.864C113.641 198.248 113.717 198.52 113.869 198.68C114.029 198.84 114.289 198.92 114.649 198.92C115.017 198.92 115.277 198.84 115.429 198.68C115.589 198.52 115.669 198.248 115.669 197.864V196.304H116.605V197.864C116.605 198.24 116.697 198.512 116.881 198.68C117.065 198.84 117.329 198.92 117.673 198.92C118.033 198.92 118.289 198.84 118.441 198.68C118.593 198.52 118.669 198.248 118.669 197.864V196.304H119.605V197.864C119.605 198.256 119.685 198.532 119.845 198.692C120.005 198.844 120.281 198.92 120.673 198.92H121.405L121.465 199.46L121.405 200H120.673C120.385 200 120.113 199.936 119.857 199.808C119.601 199.68 119.377 199.488 119.185 199.232C119.033 199.472 118.813 199.66 118.525 199.796C118.237 199.932 117.949 200 117.661 200C117.381 200 117.105 199.936 116.833 199.808C116.569 199.672 116.333 199.48 116.125 199.232ZM114.481 193.556H115.681V194.756H114.481V193.556ZM115.621 192.008H116.761V193.148H115.621V192.008ZM116.689 193.556H117.889V194.756H116.689V193.556ZM121.288 198.92H122.908C123.732 198.92 124.144 198.644 124.144 198.092C124.144 197.876 124.104 197.552 124.024 197.12C123.952 196.68 123.868 196.252 123.772 195.836L124.684 195.596C124.78 196.004 124.868 196.452 124.948 196.94C125.036 197.428 125.08 197.808 125.08 198.08C125.08 198.416 125 198.732 124.84 199.028C124.68 199.316 124.436 199.552 124.108 199.736C123.78 199.912 123.38 200 122.908 200H121.288V198.92ZM120.772 201.188H121.972V202.388H120.772V201.188ZM121.912 202.796H123.052V203.936H121.912V202.796ZM122.98 201.188H124.18V202.388H122.98V201.188ZM131.876 200C131.084 200 130.536 199.788 130.232 199.364C129.928 198.932 129.776 198.3 129.776 197.468L129.764 192.212H130.7L130.712 197.468C130.712 197.9 130.736 198.212 130.784 198.404C130.84 198.596 130.944 198.732 131.096 198.812C131.256 198.884 131.516 198.92 131.876 198.92H132.056L132.116 199.472L132.056 200H131.876ZM131.94 198.92H133.26C133.604 198.92 133.86 198.848 134.028 198.704C134.196 198.552 134.28 198.348 134.28 198.092C134.28 197.884 134.24 197.56 134.16 197.12C134.088 196.672 134.004 196.244 133.908 195.836L134.82 195.596C134.916 196.004 135.004 196.452 135.084 196.94C135.172 197.428 135.216 197.808 135.216 198.08C135.216 198.408 135.14 198.72 134.988 199.016C134.836 199.312 134.612 199.552 134.316 199.736C134.02 199.912 133.668 200 133.26 200H131.94V198.92ZM132.24 201.824H133.44V203.024H132.24V201.824ZM142.181 194.684C142.669 195.212 143.041 195.632 143.297 195.944C143.553 196.256 143.757 196.576 143.909 196.904C144.069 197.224 144.149 197.552 144.149 197.888C144.149 198.296 144.041 198.668 143.825 199.004C143.609 199.34 143.317 199.604 142.949 199.796C142.589 199.988 142.201 200.084 141.785 200.084C141.361 200.084 140.965 199.988 140.597 199.796C140.237 199.604 139.949 199.34 139.733 199.004C139.517 198.668 139.409 198.296 139.409 197.888C139.409 197.528 139.481 197.184 139.625 196.856C139.777 196.528 139.961 196.232 140.177 195.968C140.393 195.704 140.693 195.368 141.077 194.96L140.777 194.624L141.473 193.904L142.181 194.684ZM140.345 197.888C140.345 198.216 140.473 198.484 140.729 198.692C140.993 198.9 141.345 199.004 141.785 199.004C142.217 199.004 142.561 198.9 142.817 198.692C143.081 198.484 143.213 198.216 143.213 197.888C143.213 197.624 143.109 197.348 142.901 197.06C142.693 196.764 142.317 196.316 141.773 195.716C141.253 196.26 140.885 196.68 140.669 196.976C140.453 197.272 140.345 197.576 140.345 197.888ZM148.076 196.304V199.688C148.076 200.768 147.804 201.592 147.26 202.16C146.716 202.736 145.932 203.024 144.908 203.024H144.152V201.944H144.908C145.708 201.944 146.28 201.772 146.624 201.428C146.968 201.084 147.14 200.504 147.14 199.688V196.304H148.076ZM145.712 193.508H146.912V194.708H145.712V193.508ZM146.852 191.96H147.992V193.1H146.852V191.96ZM147.92 193.508H149.12V194.708H147.92V193.508ZM151.196 201.944C151.756 201.944 152.188 201.876 152.492 201.74C152.804 201.612 153.02 201.412 153.14 201.14C153.26 200.868 153.32 200.508 153.32 200.06V199.988H152C151.328 199.988 150.784 199.788 150.368 199.388C149.96 198.988 149.756 198.428 149.756 197.708C149.756 197.22 149.848 196.776 150.032 196.376C150.224 195.976 150.488 195.66 150.824 195.428C151.168 195.196 151.556 195.08 151.988 195.08C152.444 195.08 152.844 195.192 153.188 195.416C153.532 195.632 153.796 195.94 153.98 196.34C154.164 196.74 154.256 197.196 154.256 197.708V200.06C154.256 200.972 154.012 201.692 153.524 202.22C153.044 202.756 152.268 203.024 151.196 203.024H149.912V201.944H151.196ZM150.692 197.708C150.692 198.148 150.796 198.46 151.004 198.644C151.212 198.82 151.544 198.908 152 198.908H153.32V197.708C153.32 197.22 153.208 196.84 152.984 196.568C152.76 196.288 152.428 196.148 151.988 196.148C151.58 196.148 151.26 196.292 151.028 196.58C150.804 196.86 150.692 197.236 150.692 197.708ZM158.412 196.304V198.008C158.412 198.336 158.492 198.572 158.652 198.716C158.812 198.852 159.064 198.92 159.408 198.92H159.528L159.6 199.472L159.528 200H159.408C159 200 158.668 199.888 158.412 199.664V199.688C158.412 200.768 158.14 201.592 157.596 202.16C157.052 202.736 156.268 203.024 155.244 203.024H154.488V201.944H155.244C156.044 201.944 156.616 201.772 156.96 201.428C157.304 201.084 157.476 200.504 157.476 199.688V196.304H158.412ZM159.445 198.92H161.293C162.117 198.92 162.529 198.644 162.529 198.092C162.529 197.876 162.489 197.552 162.409 197.12C162.337 196.68 162.253 196.252 162.157 195.836L163.069 195.596C163.165 196.004 163.253 196.452 163.333 196.94C163.421 197.428 163.465 197.808 163.465 198.08C163.465 198.416 163.385 198.732 163.225 199.028C163.065 199.316 162.821 199.552 162.493 199.736C162.165 199.912 161.765 200 161.293 200H159.445V198.92ZM159.745 201.2H160.945V202.4H159.745V201.2ZM160.885 202.808H162.025V203.948H160.885V202.808ZM161.953 201.2H163.153V202.4H161.953V201.2ZM173.927 198.848C173.295 198.392 172.979 197.848 172.979 197.216C172.979 196.784 173.079 196.392 173.279 196.04C173.479 195.68 173.747 195.396 174.083 195.188C174.427 194.98 174.803 194.876 175.211 194.876C175.603 194.876 175.967 194.98 176.303 195.188C176.639 195.396 176.907 195.68 177.107 196.04C177.307 196.4 177.407 196.792 177.407 197.216C177.407 197.84 177.091 198.388 176.459 198.86C176.883 198.9 177.315 198.92 177.755 198.92H178.331L178.403 199.46L178.331 200H177.755C177.427 200 177.027 199.96 176.555 199.88C176.091 199.792 175.639 199.668 175.199 199.508C174.823 199.644 174.479 199.744 174.167 199.808C173.855 199.872 173.375 199.92 172.727 199.952C172.087 199.984 171.139 200 169.883 200C169.451 200 169.067 199.908 168.731 199.724C168.395 199.532 168.131 199.28 167.939 198.968C167.755 198.648 167.663 198.296 167.663 197.912C167.663 197.8 167.667 197.716 167.675 197.66C167.715 197.292 167.847 196.644 168.071 195.716L168.947 195.944C168.931 196.016 168.867 196.292 168.755 196.772C168.651 197.244 168.591 197.576 168.575 197.768C168.567 197.808 168.562 197.86 168.562 197.924C168.562 198.236 168.675 198.48 168.899 198.656C169.131 198.832 169.459 198.92 169.883 198.92C171.371 198.92 172.359 198.916 172.847 198.908C173.343 198.892 173.703 198.872 173.927 198.848ZM173.915 197.216C173.915 197.52 174.019 197.788 174.227 198.02C174.443 198.252 174.759 198.44 175.175 198.584C175.599 198.44 175.919 198.252 176.135 198.02C176.359 197.788 176.471 197.52 176.471 197.216C176.471 196.84 176.351 196.536 176.111 196.304C175.871 196.072 175.571 195.956 175.211 195.956C174.835 195.956 174.523 196.072 174.275 196.304C174.035 196.536 173.915 196.84 173.915 197.216ZM174.575 192.764H175.775V193.964H174.575V192.764ZM178.217 198.92H179.837C180.661 198.92 181.073 198.644 181.073 198.092C181.073 197.876 181.033 197.552 180.953 197.12C180.881 196.68 180.797 196.252 180.701 195.836L181.613 195.596C181.709 196.004 181.797 196.452 181.877 196.94C181.965 197.428 182.009 197.808 182.009 198.08C182.009 198.416 181.929 198.732 181.769 199.028C181.609 199.316 181.365 199.552 181.037 199.736C180.709 199.912 180.309 200 179.837 200H178.217V198.92ZM177.749 201.836H178.949V203.036H177.749V201.836ZM179.897 201.836H181.097V203.036H179.897V201.836ZM186.057 196.304V198.008C186.057 198.336 186.137 198.572 186.297 198.716C186.457 198.852 186.709 198.92 187.053 198.92H187.173L187.245 199.472L187.173 200H187.053C186.645 200 186.313 199.888 186.057 199.664V199.688C186.057 200.768 185.785 201.592 185.241 202.16C184.697 202.736 183.913 203.024 182.889 203.024H182.133V201.944H182.889C183.689 201.944 184.261 201.772 184.605 201.428C184.949 201.084 185.121 200.504 185.121 199.688V196.304H186.057ZM187.053 198.92H187.605C188.637 198.92 189.405 198.828 189.909 198.644L189.045 197.492C188.677 196.996 188.389 196.616 188.181 196.352L188.949 195.14H192.009C192.409 195.14 192.733 195.28 192.981 195.56C193.237 195.84 193.365 196.168 193.365 196.544C193.365 196.976 193.201 197.34 192.873 197.636L191.601 198.776C191.849 198.872 192.189 198.92 192.621 198.92H194.097L194.181 199.484L194.097 200H192.621C192.189 200 191.817 199.952 191.505 199.856C191.193 199.76 190.913 199.62 190.665 199.436C190.329 199.628 189.921 199.772 189.441 199.868C188.969 199.956 188.357 200 187.605 200H187.053V198.92ZM189.165 196.136C189.341 196.344 189.613 196.688 189.981 197.168C190.261 197.552 190.529 197.9 190.785 198.212C190.953 198.06 191.197 197.824 191.517 197.504C191.765 197.256 192.009 197.024 192.249 196.808C192.369 196.696 192.429 196.58 192.429 196.46C192.429 196.364 192.385 196.288 192.297 196.232C192.217 196.168 192.097 196.136 191.937 196.136H189.165ZM193.979 198.92H195.599C196.423 198.92 196.835 198.644 196.835 198.092C196.835 197.876 196.795 197.552 196.715 197.12C196.643 196.68 196.559 196.252 196.463 195.836L197.375 195.596C197.471 196.004 197.559 196.452 197.639 196.94C197.727 197.428 197.771 197.808 197.771 198.08C197.771 198.416 197.691 198.732 197.531 199.028C197.371 199.316 197.127 199.552 196.799 199.736C196.471 199.912 196.071 200 195.599 200H193.979V198.92ZM194.519 192.98H195.719V194.18H194.519V192.98ZM196.667 192.98H197.867V194.18H196.667V192.98ZM204.195 200C203.763 200 203.379 199.908 203.043 199.724C202.707 199.532 202.443 199.28 202.251 198.968C202.067 198.648 201.975 198.296 201.975 197.912C201.975 197.8 201.979 197.716 201.987 197.66C202.027 197.292 202.159 196.644 202.383 195.716L203.259 195.944C203.243 196.016 203.179 196.292 203.067 196.772C202.963 197.244 202.903 197.576 202.887 197.768C202.879 197.808 202.875 197.86 202.875 197.924C202.875 198.236 202.987 198.48 203.211 198.656C203.443 198.832 203.771 198.92 204.195 198.92H209.379C209.771 198.92 210.063 198.812 210.255 198.596C210.455 198.38 210.555 198.12 210.555 197.816C210.555 197.464 210.431 196.732 210.183 195.62L211.095 195.38C211.359 196.524 211.491 197.336 211.491 197.816C211.491 198.152 211.407 198.492 211.239 198.836C211.071 199.172 210.827 199.452 210.507 199.676C210.187 199.892 209.811 200 209.379 200H204.195ZM205.095 194.828H206.295V196.028H205.095V194.828ZM207.243 194.828H208.443V196.028H207.243V194.828ZM214.932 196.304V199.688C214.932 200.768 214.66 201.592 214.116 202.16C213.572 202.736 212.788 203.024 211.764 203.024H211.008V201.944H211.764C212.564 201.944 213.136 201.772 213.48 201.428C213.824 201.084 213.996 200.504 213.996 199.688V196.304H214.932ZM217.513 201.956C218.073 201.956 218.505 201.888 218.809 201.752C219.121 201.624 219.337 201.424 219.457 201.152C219.577 200.88 219.637 200.52 219.637 200.072V200H218.317C217.645 200 217.101 199.8 216.685 199.4C216.277 199 216.073 198.44 216.073 197.72C216.073 197.232 216.165 196.788 216.349 196.388C216.541 195.988 216.805 195.672 217.141 195.44C217.485 195.208 217.873 195.092 218.305 195.092C218.761 195.092 219.161 195.204 219.505 195.428C219.849 195.652 220.113 195.964 220.297 196.364C220.481 196.756 220.573 197.208 220.573 197.72V198.92H221.245L221.317 199.472L221.245 200H220.573V200.072C220.573 200.984 220.329 201.704 219.841 202.232C219.361 202.768 218.585 203.036 217.513 203.036H216.229V201.956H217.513ZM217.009 197.72C217.009 198.16 217.113 198.472 217.321 198.656C217.529 198.832 217.861 198.92 218.317 198.92H219.637V197.72C219.637 197.232 219.525 196.852 219.301 196.58C219.077 196.3 218.745 196.16 218.305 196.16C217.897 196.16 217.577 196.304 217.345 196.592C217.121 196.872 217.009 197.248 217.009 197.72ZM224.144 198.068C224.144 198.444 224.304 198.696 224.624 198.824L225.152 198.008L225.944 196.796C226.336 196.18 226.724 195.74 227.108 195.476C227.5 195.212 227.964 195.08 228.5 195.08C228.948 195.08 229.332 195.196 229.652 195.428C229.98 195.66 230.228 195.972 230.396 196.364C230.572 196.748 230.66 197.168 230.66 197.624C230.66 198.104 230.548 198.524 230.324 198.884C230.1 199.244 229.8 199.52 229.424 199.712C229.048 199.904 228.64 200 228.2 200H225.14C224.924 200 224.672 199.952 224.384 199.856C224.096 199.752 223.848 199.584 223.64 199.352C223.432 199.568 223.18 199.732 222.884 199.844C222.588 199.948 222.292 200 221.996 200H221.12V198.92H221.996C222.356 198.92 222.648 198.852 222.872 198.716C223.096 198.572 223.208 198.356 223.208 198.068V196.304H224.144V198.068ZM228.2 198.92C228.68 198.92 229.052 198.812 229.316 198.596C229.588 198.372 229.724 198.048 229.724 197.624C229.724 196.648 229.316 196.16 228.5 196.16C228.252 196.16 228.04 196.2 227.864 196.28C227.696 196.352 227.528 196.472 227.36 196.64C227.192 196.808 226.976 197.068 226.712 197.42C226.448 197.756 226.088 198.256 225.632 198.92H228.2ZM238.182 196.304V199.688C238.182 200.768 237.91 201.592 237.366 202.16C236.822 202.736 236.038 203.024 235.014 203.024H234.258V201.944H235.014C235.814 201.944 236.386 201.772 236.73 201.428C237.074 201.084 237.246 200.504 237.246 199.688V196.304H238.182ZM243.787 196.94C244.043 197.332 244.171 197.764 244.171 198.236C244.171 198.596 244.087 198.896 243.919 199.136C243.687 199.464 243.407 199.692 243.079 199.82C242.751 199.94 242.391 200 241.999 200H241.351C240.919 200 240.527 199.94 240.175 199.82C239.831 199.692 239.547 199.548 239.323 199.388L239.815 198.476C239.839 198.484 239.915 198.532 240.043 198.62C240.179 198.7 240.363 198.772 240.595 198.836C240.827 198.892 241.079 198.92 241.351 198.92H241.999C242.287 198.92 242.523 198.892 242.707 198.836C242.899 198.772 243.047 198.664 243.151 198.512C243.223 198.416 243.259 198.308 243.259 198.188C243.259 198.012 243.171 197.788 242.995 197.516C242.243 196.332 241.635 195.396 241.171 194.708L241.963 194.108L243.787 196.94Z" fill="#436B88"/>
<circle cx="91" cy="48" r="48" fill="#FFF2F2"/>
<path fill-rule="evenodd" clip-rule="evenodd" d="M92.1663 47.1666V134.667C92.1663 136.6 90.5993 138.167 88.6663 138.167C86.7333 138.167 85.1663 136.6 85.1663 134.667V46C85.1663 42.7783 87.778 40.1666 90.9997 40.1666H137.666C140.888 40.1666 143.5 42.7784 143.5 46V134.667C143.5 136.6 141.933 138.167 140 138.167C138.067 138.167 136.5 136.6 136.5 134.667V47.1666H92.1663Z" fill="#213543"/>
<path fill-rule="evenodd" clip-rule="evenodd" d="M136.999 65.1999C137.993 63.5423 140.143 63.0047 141.801 63.9992L165.134 77.9975C166.188 78.63 166.834 79.7694 166.834 80.9989V134.667C166.834 136.6 165.267 138.167 163.334 138.167C161.401 138.167 159.834 136.6 159.834 134.667V82.9806L138.2 70.0018C136.542 69.0074 136.004 66.8575 136.999 65.1999Z" fill="#213543"/>
<path fill-rule="evenodd" clip-rule="evenodd" d="M75.833 134.667C75.833 132.734 77.4 131.167 79.333 131.167H172.666C174.599 131.167 176.166 132.734 176.166 134.667C176.166 136.6 174.599 138.167 172.666 138.167H79.333C77.4 138.167 75.833 136.6 75.833 134.667Z" fill="#213543"/>
</svg>
