<svg width="318" height="15" viewBox="0 0 318 15" fill="none" xmlns="http://www.w3.org/2000/svg">
<path d="M0.970109 10C0.736776 10 0.536109 9.92067 0.368109 9.762C0.209443 9.594 0.130109 9.39333 0.130109 9.16C0.130109 8.92667 0.209443 8.73067 0.368109 8.572C0.536109 8.404 0.736776 8.32 0.970109 8.32C1.20344 8.32 1.39944 8.404 1.55811 8.572C1.72611 8.73067 1.81011 8.92667 1.81011 9.16C1.81011 9.39333 1.72611 9.594 1.55811 9.762C1.39944 9.92067 1.20344 10 0.970109 10ZM7.53534 3.098C7.63801 3.34067 7.96001 4.04533 8.50134 5.212L9.00534 6.318C9.00534 6.318 9.00534 6.32267 9.00534 6.332C9.01468 6.332 9.01934 6.332 9.01934 6.332C9.29001 6.93867 9.52334 7.41 9.71934 7.746C9.92468 8.082 10.1393 8.334 10.3633 8.502C10.5873 8.66067 10.8487 8.74 11.1473 8.74H11.3713L11.4413 9.412L11.3713 10H11.1473C10.7367 10 10.368 9.90667 10.0413 9.72C9.72401 9.524 9.42068 9.244 9.13134 8.88L9.08934 8.95C8.60401 9.65 7.83868 10 6.79334 10H6.07934C5.57534 10 5.12734 9.92533 4.73534 9.776C4.34334 9.61733 4.00734 9.44 3.72734 9.244L4.30134 8.18C4.58134 8.348 4.84734 8.48333 5.09934 8.586C5.35134 8.68867 5.67801 8.74 6.07934 8.74H6.79334C7.12934 8.74 7.41401 8.70267 7.64734 8.628C7.88068 8.544 8.06268 8.40867 8.19334 8.222C8.28668 8.10067 8.33334 7.96067 8.33334 7.802C8.33334 7.662 8.28201 7.466 8.17934 7.214L8.01134 6.836L7.57734 5.898C7.16668 5.02067 6.81668 4.26467 6.52734 3.63L7.53534 3.098ZM15.2188 5.688V7.676C15.2188 8.05867 15.3122 8.334 15.4988 8.502C15.6855 8.66067 15.9795 8.74 16.3808 8.74H17.0948L17.1648 9.398L17.0948 10H16.3808C16.0822 10 15.7695 9.92533 15.4428 9.776C15.1162 9.62667 14.8408 9.40267 14.6168 9.104C14.3928 9.39333 14.1082 9.61733 13.7628 9.776C13.4175 9.92533 13.0675 10 12.7128 10H11.2288V8.74H12.7128C13.1888 8.74 13.5435 8.642 13.7768 8.446C14.0102 8.25 14.1268 7.93733 14.1268 7.508V5.688H15.2188ZM10.7808 12.142H12.1808V13.542H10.7808V12.142ZM13.2868 12.142H14.6868V13.542H13.2868V12.142ZM20.6813 5.688V7.676C20.6813 8.05867 20.7747 8.334 20.9613 8.502C21.148 8.66067 21.442 8.74 21.8433 8.74H22.3613L22.4313 9.384L22.3613 10H21.8433C21.5447 10 21.232 9.92533 20.9053 9.776C20.5787 9.62667 20.3033 9.40267 20.0793 9.104C19.8553 9.39333 19.5707 9.61733 19.2253 9.776C18.88 9.92533 18.53 10 18.1753 10H16.9573V8.74H18.1753C18.6513 8.74 19.006 8.642 19.2393 8.446C19.4727 8.25 19.5893 7.93733 19.5893 7.508V5.688H20.6813ZM18.0633 2.706H19.4633V4.106H18.0633V2.706ZM28.787 1.614L24.377 3.56L26.925 6.15C27.1583 6.39267 27.3357 6.65867 27.457 6.948C27.5783 7.23733 27.639 7.536 27.639 7.844C27.639 8.21733 27.5457 8.572 27.359 8.908C27.1817 9.23467 26.9203 9.50067 26.575 9.706C26.2297 9.902 25.819 10 25.343 10H22.221V8.74H25.343C25.7537 8.74 26.0663 8.66533 26.281 8.516C26.505 8.36667 26.617 8.17067 26.617 7.928C26.617 7.63867 26.4583 7.33533 26.141 7.018L23.187 4.05L23.523 2.58L28.339 0.465999L28.787 1.614ZM37.9607 6.43C38.2594 6.88733 38.4087 7.39133 38.4087 7.942C38.4087 8.362 38.3107 8.712 38.1147 8.992C37.8441 9.37467 37.5174 9.64067 37.1347 9.79C36.7521 9.93 36.3321 10 35.8747 10H35.1187C34.6147 10 34.1574 9.93 33.7467 9.79C33.3454 9.64067 33.0141 9.47267 32.7527 9.286L33.3267 8.222C33.3547 8.23133 33.4434 8.28733 33.5927 8.39C33.7514 8.48333 33.9661 8.56733 34.2367 8.642C34.5074 8.70733 34.8014 8.74 35.1187 8.74H35.8747C36.2107 8.74 36.4861 8.70733 36.7007 8.642C36.9247 8.56733 37.0974 8.44133 37.2187 8.264C37.3027 8.152 37.3447 8.026 37.3447 7.886C37.3447 7.68067 37.2421 7.41933 37.0367 7.102C36.1594 5.72067 35.4501 4.62867 34.9087 3.826L35.8327 3.126L37.9607 6.43ZM42.4276 5.688V9.636C42.4276 10.896 42.1103 11.8573 41.4756 12.52C40.8409 13.192 39.9263 13.528 38.7316 13.528H37.8496V12.268H38.7316C39.6649 12.268 40.3323 12.0673 40.7336 11.666C41.1349 11.2647 41.3356 10.588 41.3356 9.636V5.688H42.4276ZM44.3186 0.913999H45.4106L45.4246 10H44.3326L44.3186 0.913999ZM48.7882 12.268C49.4415 12.268 49.9455 12.1887 50.3002 12.03C50.6642 11.8807 50.9162 11.6473 51.0562 11.33C51.1962 11.0127 51.2662 10.5927 51.2662 10.07V9.986H49.7262C48.9422 9.986 48.3075 9.75267 47.8222 9.286C47.3462 8.81933 47.1082 8.166 47.1082 7.326C47.1082 6.75667 47.2155 6.23867 47.4302 5.772C47.6542 5.30533 47.9622 4.93667 48.3542 4.666C48.7555 4.39533 49.2082 4.26 49.7122 4.26C50.2442 4.26 50.7109 4.39067 51.1122 4.652C51.5135 4.904 51.8215 5.26333 52.0362 5.73C52.2509 6.19667 52.3582 6.72867 52.3582 7.326V10.07C52.3582 11.134 52.0735 11.974 51.5042 12.59C50.9442 13.2153 50.0389 13.528 48.7882 13.528H47.2902V12.268H48.7882ZM48.2002 7.326C48.2002 7.83933 48.3215 8.20333 48.5642 8.418C48.8069 8.62333 49.1942 8.726 49.7262 8.726H51.2662V7.326C51.2662 6.75667 51.1355 6.31333 50.8742 5.996C50.6129 5.66933 50.2255 5.506 49.7122 5.506C49.2362 5.506 48.8629 5.674 48.5922 6.01C48.3309 6.33667 48.2002 6.77533 48.2002 7.326ZM57.8127 0.913999H58.9047L58.9187 10H57.8267L57.8127 0.913999ZM63.0858 5.688V9.636C63.0858 10.896 62.7685 11.8573 62.1338 12.52C61.4991 13.192 60.5845 13.528 59.3898 13.528H58.5078V12.268H59.3898C60.3231 12.268 60.9905 12.0673 61.3918 11.666C61.7931 11.2647 61.9938 10.588 61.9938 9.636V5.688H63.0858ZM73.1248 6.43C73.4235 6.88733 73.5728 7.39133 73.5728 7.942C73.5728 8.362 73.4748 8.712 73.2788 8.992C73.0081 9.37467 72.6815 9.64067 72.2988 9.79C71.9161 9.93 71.4961 10 71.0388 10H70.2828C69.7788 10 69.3215 9.93 68.9108 9.79C68.5095 9.64067 68.1781 9.47267 67.9168 9.286L68.4908 8.222C68.5188 8.23133 68.6075 8.28733 68.7568 8.39C68.9155 8.48333 69.1301 8.56733 69.4008 8.642C69.6715 8.70733 69.9655 8.74 70.2828 8.74H71.0388C71.3748 8.74 71.6501 8.70733 71.8648 8.642C72.0888 8.56733 72.2615 8.44133 72.3828 8.264C72.4668 8.152 72.5088 8.026 72.5088 7.886C72.5088 7.68067 72.4061 7.41933 72.2008 7.102C71.3235 5.72067 70.6141 4.62867 70.0728 3.826L70.9968 3.126L73.1248 6.43ZM76.6515 12.282C77.3048 12.282 77.8088 12.2027 78.1635 12.044C78.5275 11.8947 78.7795 11.6613 78.9195 11.344C79.0595 11.0267 79.1295 10.6067 79.1295 10.084V10H77.5895C76.8055 10 76.1708 9.76667 75.6855 9.3C75.2095 8.83333 74.9715 8.18 74.9715 7.34C74.9715 6.77067 75.0788 6.25267 75.2935 5.786C75.5175 5.31933 75.8255 4.95067 76.2175 4.68C76.6188 4.40933 77.0715 4.274 77.5755 4.274C78.1075 4.274 78.5742 4.40467 78.9755 4.666C79.3768 4.92733 79.6848 5.29133 79.8995 5.758C80.1142 6.21533 80.2215 6.74267 80.2215 7.34V8.74H81.0055L81.0895 9.384L81.0055 10H80.2215V10.084C80.2215 11.148 79.9368 11.988 79.3675 12.604C78.8075 13.2293 77.9022 13.542 76.6515 13.542H75.1535V12.282H76.6515ZM76.0635 7.34C76.0635 7.85333 76.1848 8.21733 76.4275 8.432C76.6702 8.63733 77.0575 8.74 77.5895 8.74H79.1295V7.34C79.1295 6.77067 78.9988 6.32733 78.7375 6.01C78.4762 5.68333 78.0888 5.52 77.5755 5.52C77.0995 5.52 76.7262 5.688 76.4555 6.024C76.1942 6.35067 76.0635 6.78933 76.0635 7.34ZM80.8037 8.74H82.5397C83.1837 8.74 83.781 8.66067 84.3317 8.502C84.8917 8.334 85.391 8.13333 85.8297 7.9C86.2777 7.66667 86.889 7.31667 87.6637 6.85C86.5717 6.39267 85.7364 6.05667 85.1577 5.842C84.5884 5.62733 84.1917 5.52 83.9677 5.52C83.6877 5.52 83.4684 5.58533 83.3097 5.716C83.1604 5.83733 83.0157 6.08933 82.8757 6.472L81.8117 6.136C82.241 4.88533 82.9597 4.26 83.9677 4.26C84.285 4.26 84.7704 4.38133 85.4237 4.624C86.0864 4.86667 87.0057 5.23533 88.1817 5.73L88.8677 6.01L89.1477 7.34L88.4057 7.802C87.5937 8.31533 86.9217 8.71667 86.3897 9.006C85.8577 9.29533 85.2697 9.53333 84.6257 9.72C83.991 9.90667 83.2957 10 82.5397 10H80.8037V8.74ZM83.4917 1.53H84.8917V2.93H83.4917V1.53ZM97.2778 3.798C97.8471 4.414 98.2811 4.904 98.5798 5.268C98.8784 5.632 99.1164 6.00533 99.2938 6.388C99.4804 6.76133 99.5738 7.144 99.5738 7.536C99.5738 8.012 99.4478 8.446 99.1958 8.838C98.9438 9.23 98.6031 9.538 98.1738 9.762C97.7538 9.986 97.3011 10.098 96.8158 10.098C96.3211 10.098 95.8591 9.986 95.4298 9.762C95.0098 9.538 94.6738 9.23 94.4218 8.838C94.1698 8.446 94.0438 8.012 94.0438 7.536C94.0438 7.116 94.1278 6.71467 94.2958 6.332C94.4731 5.94933 94.6878 5.604 94.9398 5.296C95.1918 4.988 95.5418 4.596 95.9898 4.12L95.6398 3.728L96.4518 2.888L97.2778 3.798ZM95.1358 7.536C95.1358 7.91867 95.2851 8.23133 95.5838 8.474C95.8918 8.71667 96.3024 8.838 96.8158 8.838C97.3198 8.838 97.7211 8.71667 98.0198 8.474C98.3278 8.23133 98.4818 7.91867 98.4818 7.536C98.4818 7.228 98.3604 6.906 98.1178 6.57C97.8751 6.22467 97.4364 5.702 96.8018 5.002C96.1951 5.63667 95.7658 6.12667 95.5138 6.472C95.2618 6.81733 95.1358 7.172 95.1358 7.536ZM101.535 0.913999H102.627L102.641 10H101.549L101.535 0.913999ZM106.808 5.688V7.676C106.808 8.05867 106.902 8.334 107.088 8.502C107.275 8.66067 107.569 8.74 107.97 8.74H108.11L108.194 9.384L108.11 10H107.97C107.494 10 107.107 9.86933 106.808 9.608V9.636C106.808 10.896 106.491 11.8573 105.856 12.52C105.222 13.192 104.307 13.528 103.112 13.528H102.23V12.268H103.112C104.046 12.268 104.713 12.0673 105.114 11.666C105.516 11.2647 105.716 10.588 105.716 9.636V5.688H106.808ZM107.971 8.74H108.363C108.802 8.74 109.072 8.544 109.175 8.152L109.623 6.542C109.828 5.814 110.146 5.24467 110.575 4.834C111.004 4.414 111.522 4.204 112.129 4.204C112.614 4.204 113.044 4.34867 113.417 4.638C113.79 4.918 114.08 5.30067 114.285 5.786C114.49 6.262 114.593 6.78 114.593 7.34C114.593 7.732 114.626 8.03067 114.691 8.236C114.756 8.432 114.85 8.56733 114.971 8.642C115.092 8.70733 115.26 8.74 115.475 8.74H115.615L115.685 9.37L115.615 10H115.475C114.878 10 114.42 9.804 114.103 9.412C113.907 9.72 113.674 9.944 113.403 10.084C113.132 10.2333 112.848 10.308 112.549 10.308C112.194 10.308 111.84 10.238 111.485 10.098C111.13 9.96733 110.57 9.706 109.805 9.314C109.618 9.52867 109.399 9.69667 109.147 9.818C108.895 9.93933 108.634 10 108.363 10H107.971V8.74ZM110.323 8.194C110.995 8.53933 111.471 8.768 111.751 8.88C112.031 8.992 112.297 9.048 112.549 9.048C112.866 9.048 113.104 8.93133 113.263 8.698C113.422 8.45533 113.501 8.00267 113.501 7.34C113.501 6.752 113.384 6.29467 113.151 5.968C112.918 5.632 112.577 5.464 112.129 5.464C111.793 5.464 111.499 5.58067 111.247 5.814C111.004 6.04733 110.818 6.402 110.687 6.878L110.323 8.194ZM122.253 3.126L124.381 6.402C124.689 6.878 124.843 7.36333 124.843 7.858C124.843 8.362 124.675 8.80533 124.339 9.188C124.078 9.47733 123.704 9.692 123.219 9.832C122.734 9.96267 122.099 10.028 121.315 10.028C120.55 10.028 119.789 9.89267 119.033 9.622C118.268 9.874 117.446 10 116.569 10H115.477V8.74H116.779C116.947 8.74 117.171 8.73067 117.451 8.712C116.807 8.16133 116.485 7.51267 116.485 6.766C116.485 6.262 116.602 5.8 116.835 5.38C117.068 4.96 117.381 4.62867 117.773 4.386C118.174 4.14333 118.613 4.022 119.089 4.022C119.546 4.022 119.971 4.14333 120.363 4.386C120.755 4.62867 121.068 4.96 121.301 5.38C121.534 5.8 121.651 6.25733 121.651 6.752C121.651 7.52667 121.334 8.18467 120.699 8.726C120.792 8.73533 120.942 8.74 121.147 8.74C122.51 8.74 123.322 8.60467 123.583 8.334C123.695 8.222 123.751 8.07733 123.751 7.9C123.751 7.68533 123.653 7.41933 123.457 7.102L121.329 3.798L122.253 3.126ZM117.577 6.836C117.577 7.57333 118.048 8.11 118.991 8.446C119.486 8.278 119.868 8.05867 120.139 7.788C120.419 7.51733 120.559 7.2 120.559 6.836C120.559 6.37867 120.424 6.00533 120.153 5.716C119.892 5.42667 119.532 5.282 119.075 5.282C118.618 5.282 118.254 5.43133 117.983 5.73C117.712 6.01933 117.577 6.388 117.577 6.836ZM132.975 3.798C133.544 4.414 133.978 4.904 134.277 5.268C134.576 5.632 134.814 6.00533 134.991 6.388C135.178 6.76133 135.271 7.144 135.271 7.536C135.271 8.012 135.145 8.446 134.893 8.838C134.641 9.23 134.3 9.538 133.871 9.762C133.451 9.986 132.998 10.098 132.513 10.098C132.018 10.098 131.556 9.986 131.127 9.762C130.707 9.538 130.371 9.23 130.119 8.838C129.867 8.446 129.741 8.012 129.741 7.536C129.741 7.116 129.825 6.71467 129.993 6.332C130.17 5.94933 130.385 5.604 130.637 5.296C130.889 4.988 131.239 4.596 131.687 4.12L131.337 3.728L132.149 2.888L132.975 3.798ZM130.833 7.536C130.833 7.91867 130.982 8.23133 131.281 8.474C131.589 8.71667 132 8.838 132.513 8.838C133.017 8.838 133.418 8.71667 133.717 8.474C134.025 8.23133 134.179 7.91867 134.179 7.536C134.179 7.228 134.058 6.906 133.815 6.57C133.572 6.22467 133.134 5.702 132.499 5.002C131.892 5.63667 131.463 6.12667 131.211 6.472C130.959 6.81733 130.833 7.172 130.833 7.536ZM139.156 5.688V9.636C139.156 10.896 138.839 11.8573 138.204 12.52C137.569 13.192 136.655 13.528 135.46 13.528H134.578V12.268H135.46C136.393 12.268 137.061 12.0673 137.462 11.666C137.863 11.2647 138.064 10.588 138.064 9.636V5.688H139.156ZM143.511 10C142.587 10 141.948 9.75267 141.593 9.258C141.238 8.754 141.061 8.01667 141.061 7.046L141.047 0.913999H142.139L142.153 7.046C142.153 7.55 142.181 7.914 142.237 8.138C142.302 8.362 142.424 8.52067 142.601 8.614C142.788 8.698 143.091 8.74 143.511 8.74H143.721L143.791 9.384L143.721 10H143.511ZM143.586 8.74H143.978C144.417 8.74 144.688 8.544 144.79 8.152L145.238 6.542C145.444 5.814 145.761 5.24467 146.19 4.834C146.62 4.414 147.138 4.204 147.744 4.204C148.23 4.204 148.659 4.34867 149.032 4.638C149.406 4.918 149.695 5.30067 149.9 5.786C150.106 6.262 150.208 6.78 150.208 7.34C150.208 7.732 150.241 8.03067 150.306 8.236C150.372 8.432 150.465 8.56733 150.586 8.642C150.708 8.70733 150.876 8.74 151.09 8.74H151.23L151.3 9.37L151.23 10H151.09C150.493 10 150.036 9.804 149.718 9.412C149.522 9.72 149.289 9.944 149.018 10.084C148.748 10.2333 148.463 10.308 148.164 10.308C147.81 10.308 147.455 10.238 147.1 10.098C146.746 9.96733 146.186 9.706 145.42 9.314C145.234 9.52867 145.014 9.69667 144.762 9.818C144.51 9.93933 144.249 10 143.978 10H143.586V8.74ZM145.938 8.194C146.61 8.53933 147.086 8.768 147.366 8.88C147.646 8.992 147.912 9.048 148.164 9.048C148.482 9.048 148.72 8.93133 148.878 8.698C149.037 8.45533 149.116 8.00267 149.116 7.34C149.116 6.752 149 6.29467 148.766 5.968C148.533 5.632 148.192 5.464 147.744 5.464C147.408 5.464 147.114 5.58067 146.862 5.814C146.62 6.04733 146.433 6.402 146.302 6.878L145.938 8.194ZM151.092 8.74H151.946C152.394 8.74 152.711 8.642 152.898 8.446C153.094 8.25 153.192 7.93733 153.192 7.508V5.688H154.284V7.676C154.284 8.04933 154.373 8.32 154.55 8.488C154.737 8.64667 155.021 8.73067 155.404 8.74C155.852 8.73067 156.169 8.63267 156.356 8.446C156.552 8.25 156.65 7.93733 156.65 7.508V5.688H157.742V7.676C157.742 8.04933 157.831 8.32 158.008 8.488C158.195 8.64667 158.479 8.73067 158.862 8.74C159.254 8.73067 159.543 8.642 159.73 8.474C159.917 8.306 160.01 8.07267 160.01 7.774C160.01 7.53133 159.963 7.15333 159.87 6.64C159.786 6.11733 159.688 5.618 159.576 5.142L160.64 4.862C160.752 5.338 160.855 5.86067 160.948 6.43C161.051 6.99933 161.102 7.44267 161.102 7.76C161.102 8.13333 161.013 8.49267 160.836 8.838C160.668 9.18333 160.411 9.46333 160.066 9.678C159.73 9.89267 159.329 10 158.862 10C158.563 10 158.255 9.93 157.938 9.79C157.63 9.64067 157.364 9.412 157.14 9.104C156.683 9.70133 156.104 10 155.404 10C155.096 10 154.783 9.92067 154.466 9.762C154.149 9.594 153.887 9.37467 153.682 9.104C153.458 9.40267 153.197 9.62667 152.898 9.776C152.599 9.92533 152.282 10 151.946 10H151.092V8.74ZM155.25 2.44H156.65V3.84H155.25V2.44ZM156.58 0.634H157.91V1.964H156.58V0.634ZM157.826 2.44H159.226V3.84H157.826V2.44ZM168.589 10C168.085 10 167.637 9.89267 167.245 9.678C166.853 9.454 166.545 9.16 166.321 8.796C166.106 8.42267 165.999 8.012 165.999 7.564C165.999 7.43333 166.003 7.33533 166.013 7.27C166.059 6.84067 166.213 6.08467 166.475 5.002L167.497 5.268C167.478 5.352 167.403 5.674 167.273 6.234C167.151 6.78467 167.081 7.172 167.063 7.396C167.053 7.44267 167.049 7.50333 167.049 7.578C167.049 7.942 167.179 8.22667 167.441 8.432C167.711 8.63733 168.094 8.74 168.589 8.74H174.637C175.113 8.74 175.467 8.642 175.701 8.446C175.934 8.25 176.051 7.93733 176.051 7.508V5.688H177.143V7.676C177.143 8.05867 177.236 8.334 177.423 8.502C177.609 8.66067 177.903 8.74 178.305 8.74H178.823L178.893 9.342L178.823 10H178.305C178.006 10 177.693 9.92533 177.367 9.776C177.04 9.62667 176.765 9.40267 176.541 9.104C176.317 9.39333 176.032 9.61733 175.687 9.776C175.341 9.92533 174.991 10 174.637 10H168.589ZM169.877 3.994H171.277V5.394H169.877V3.994ZM172.383 3.994H173.783V5.394H172.383V3.994ZM178.682 8.74H179.536C179.984 8.74 180.301 8.642 180.488 8.446C180.684 8.25 180.782 7.93733 180.782 7.508V5.688H181.874V7.676C181.874 8.04933 181.963 8.32 182.14 8.488C182.327 8.64667 182.611 8.73067 182.994 8.74C183.442 8.73067 183.759 8.63267 183.946 8.446C184.142 8.25 184.24 7.93733 184.24 7.508V5.688H185.332V7.676C185.332 8.04933 185.421 8.32 185.598 8.488C185.785 8.64667 186.069 8.73067 186.452 8.74C186.844 8.73067 187.133 8.642 187.32 8.474C187.507 8.306 187.6 8.07267 187.6 7.774C187.6 7.53133 187.553 7.15333 187.46 6.64C187.376 6.11733 187.278 5.618 187.166 5.142L188.23 4.862C188.342 5.338 188.445 5.86067 188.538 6.43C188.641 6.99933 188.692 7.44267 188.692 7.76C188.692 8.13333 188.603 8.49267 188.426 8.838C188.258 9.18333 188.001 9.46333 187.656 9.678C187.32 9.89267 186.919 10 186.452 10C186.153 10 185.845 9.93 185.528 9.79C185.22 9.64067 184.954 9.412 184.73 9.104C184.273 9.70133 183.694 10 182.994 10C182.686 10 182.373 9.92067 182.056 9.762C181.739 9.594 181.477 9.37467 181.272 9.104C181.048 9.40267 180.787 9.62667 180.488 9.776C180.189 9.92533 179.872 10 179.536 10H178.682V8.74ZM192.709 5.688V7.676C192.709 8.05867 192.802 8.334 192.989 8.502C193.176 8.66067 193.47 8.74 193.871 8.74H194.011L194.095 9.384L194.011 10H193.871C193.395 10 193.008 9.86933 192.709 9.608V9.636C192.709 10.896 192.392 11.8573 191.757 12.52C191.122 13.192 190.208 13.528 189.013 13.528H188.131V12.268H189.013C189.946 12.268 190.614 12.0673 191.015 11.666C191.416 11.2647 191.617 10.588 191.617 9.636V5.688H192.709ZM193.913 8.74H196.069C197.031 8.74 197.511 8.418 197.511 7.774C197.511 7.522 197.465 7.144 197.371 6.64C197.287 6.12667 197.189 5.62733 197.077 5.142L198.141 4.862C198.253 5.338 198.356 5.86067 198.449 6.43C198.552 6.99933 198.603 7.44267 198.603 7.76C198.603 8.152 198.51 8.52067 198.323 8.866C198.137 9.202 197.852 9.47733 197.469 9.692C197.087 9.89733 196.62 10 196.069 10H193.913V8.74ZM194.263 11.4H195.663V12.8H194.263V11.4ZM195.593 13.276H196.923V14.606H195.593V13.276ZM196.839 11.4H198.239V12.8H196.839V11.4ZM203.879 5.688V7.676C203.879 8.05867 203.972 8.334 204.159 8.502C204.345 8.66067 204.639 8.74 205.041 8.74H205.181L205.265 9.384L205.181 10H205.041C204.565 10 204.177 9.86933 203.879 9.608V9.636C203.879 10.896 203.561 11.8573 202.927 12.52C202.292 13.192 201.377 13.528 200.183 13.528H199.301V12.268H200.183C201.116 12.268 201.783 12.0673 202.185 11.666C202.586 11.2647 202.787 10.588 202.787 9.636V5.688H203.879ZM205.041 8.74H205.895C206.343 8.74 206.661 8.642 206.847 8.446C207.043 8.25 207.141 7.93733 207.141 7.508V5.688H208.233V7.676C208.233 8.04933 208.322 8.32 208.499 8.488C208.686 8.64667 208.971 8.73067 209.353 8.74C209.801 8.73067 210.119 8.63267 210.305 8.446C210.501 8.25 210.599 7.93733 210.599 7.508V5.688H211.691V7.676C211.691 8.04933 211.78 8.32 211.957 8.488C212.144 8.64667 212.429 8.73067 212.811 8.74C213.203 8.73067 213.493 8.642 213.679 8.474C213.866 8.306 213.959 8.07267 213.959 7.774C213.959 7.53133 213.913 7.15333 213.819 6.64C213.735 6.11733 213.637 5.618 213.525 5.142L214.589 4.862C214.701 5.338 214.804 5.86067 214.897 6.43C215 6.99933 215.051 7.44267 215.051 7.76C215.051 8.13333 214.963 8.49267 214.785 8.838C214.617 9.18333 214.361 9.46333 214.015 9.678C213.679 9.89267 213.278 10 212.811 10C212.513 10 212.205 9.93 211.887 9.79C211.579 9.64067 211.313 9.412 211.089 9.104C210.632 9.70133 210.053 10 209.353 10C209.045 10 208.733 9.92067 208.415 9.762C208.098 9.594 207.837 9.37467 207.631 9.104C207.407 9.40267 207.146 9.62667 206.847 9.776C206.549 9.92533 206.231 10 205.895 10H205.041V8.74ZM223.56 13.528C222.785 13.528 222.127 13.3367 221.586 12.954C221.045 12.5713 220.634 12.0673 220.354 11.442C220.083 10.8167 219.948 10.1493 219.948 9.44C219.948 8.98267 220.018 8.488 220.158 7.956C220.307 7.424 220.48 6.948 220.676 6.528L221.642 7.004C221.474 7.35867 221.329 7.76 221.208 8.208C221.096 8.656 221.04 9.06667 221.04 9.44C221.04 10.2893 221.245 10.9707 221.656 11.484C222.076 12.0067 222.711 12.268 223.56 12.268H224.246C224.881 12.268 225.375 12.1933 225.73 12.044C226.085 11.904 226.337 11.6753 226.486 11.358C226.635 11.05 226.71 10.6253 226.71 10.084L226.696 0.913999H227.788L227.802 7.55C227.802 7.998 227.909 8.31067 228.124 8.488C228.348 8.656 228.651 8.74 229.034 8.74H229.244L229.328 9.398L229.244 10H229.034C228.558 10 228.147 9.86933 227.802 9.608V10.084C227.802 11.1667 227.517 12.0113 226.948 12.618C226.379 13.2247 225.478 13.528 224.246 13.528H223.56ZM232.869 5.688V7.676C232.869 8.05867 232.962 8.334 233.149 8.502C233.336 8.66067 233.63 8.74 234.031 8.74H234.549L234.619 9.384L234.549 10H234.031C233.732 10 233.42 9.92533 233.093 9.776C232.766 9.62667 232.491 9.40267 232.267 9.104C232.043 9.39333 231.758 9.61733 231.413 9.776C231.068 9.92533 230.718 10 230.363 10H229.145V8.74H230.363C230.839 8.74 231.194 8.642 231.427 8.446C231.66 8.25 231.777 7.93733 231.777 7.508V5.688H232.869ZM230.251 2.706H231.651V4.106H230.251V2.706ZM234.409 8.74H236.299C237.26 8.74 237.741 8.418 237.741 7.774C237.741 7.522 237.694 7.144 237.601 6.64C237.517 6.12667 237.419 5.62733 237.307 5.142L238.371 4.862C238.483 5.338 238.585 5.86067 238.679 6.43C238.781 6.99933 238.833 7.44267 238.833 7.76C238.833 8.152 238.739 8.52067 238.553 8.866C238.366 9.202 238.081 9.47733 237.699 9.692C237.316 9.89733 236.849 10 236.299 10H234.409V8.74ZM233.807 11.386H235.207V12.786H233.807V11.386ZM235.137 13.262H236.467V14.592H235.137V13.262ZM236.383 11.386H237.783V12.786H236.383V11.386ZM249.197 7.228C249.44 8.236 250.154 8.74 251.339 8.74H251.619L251.689 9.37L251.619 10H251.339C250.76 10 250.196 9.86467 249.645 9.594C249.094 9.314 248.67 8.86133 248.371 8.236C248.128 8.628 247.825 8.92667 247.461 9.132C247.097 9.33733 246.705 9.44 246.285 9.44C245.846 9.44 245.412 9.31867 244.983 9.076C244.591 8.86133 244.283 8.54867 244.059 8.138C243.844 7.718 243.737 7.27467 243.737 6.808C243.737 6.32267 243.849 5.89333 244.073 5.52C244.232 5.25867 244.404 5.03933 244.591 4.862C244.778 4.68467 245.067 4.49333 245.459 4.288C245.86 4.07333 246.43 3.812 247.167 3.504L247.013 2.804L248.077 2.524L249.197 7.228ZM245.025 6.164C244.885 6.39733 244.815 6.63067 244.815 6.864C244.815 7.088 244.876 7.30267 244.997 7.508C245.118 7.71333 245.286 7.88133 245.501 8.012C245.697 8.14267 245.94 8.208 246.229 8.208C246.481 8.208 246.724 8.152 246.957 8.04C247.2 7.928 247.405 7.76933 247.573 7.564C247.666 7.44267 247.736 7.31667 247.783 7.186C247.83 7.05533 247.853 6.89667 247.853 6.71C247.853 6.57933 247.839 6.416 247.811 6.22L247.447 4.666C246.691 4.92733 246.131 5.184 245.767 5.436C245.412 5.67867 245.165 5.92133 245.025 6.164ZM251.485 8.74H253.025C253.426 8.74 253.725 8.656 253.921 8.488C254.117 8.31067 254.215 8.07267 254.215 7.774C254.215 7.53133 254.168 7.15333 254.075 6.64C253.991 6.11733 253.893 5.618 253.781 5.142L254.845 4.862C254.957 5.338 255.059 5.86067 255.153 6.43C255.255 6.99933 255.307 7.44267 255.307 7.76C255.307 8.14267 255.218 8.50667 255.041 8.852C254.863 9.19733 254.602 9.47733 254.257 9.692C253.911 9.89733 253.501 10 253.025 10H251.485V8.74ZM251.835 12.128H253.235V13.528H251.835V12.128ZM265.406 6.43C265.705 6.88733 265.854 7.39133 265.854 7.942C265.854 8.362 265.756 8.712 265.56 8.992C265.289 9.37467 264.963 9.64067 264.58 9.79C264.197 9.93 263.777 10 263.32 10H262.564C262.06 10 261.603 9.93 261.192 9.79C260.791 9.64067 260.459 9.47267 260.198 9.286L260.772 8.222C260.8 8.23133 260.889 8.28733 261.038 8.39C261.197 8.48333 261.411 8.56733 261.682 8.642C261.953 8.70733 262.247 8.74 262.564 8.74H263.32C263.656 8.74 263.931 8.70733 264.146 8.642C264.37 8.56733 264.543 8.44133 264.664 8.264C264.748 8.152 264.79 8.026 264.79 7.886C264.79 7.68067 264.687 7.41933 264.482 7.102C263.605 5.72067 262.895 4.62867 262.354 3.826L263.278 3.126L265.406 6.43ZM268.933 12.268C269.586 12.268 270.09 12.1887 270.445 12.03C270.809 11.8807 271.061 11.6473 271.201 11.33C271.341 11.0127 271.411 10.5927 271.411 10.07V9.986H269.871C269.087 9.986 268.452 9.75267 267.967 9.286C267.491 8.81933 267.253 8.166 267.253 7.326C267.253 6.75667 267.36 6.23867 267.575 5.772C267.799 5.30533 268.107 4.93667 268.499 4.666C268.9 4.39533 269.353 4.26 269.857 4.26C270.389 4.26 270.855 4.39067 271.257 4.652C271.658 4.904 271.966 5.26333 272.181 5.73C272.395 6.19667 272.503 6.72867 272.503 7.326V10.07C272.503 11.134 272.218 11.974 271.649 12.59C271.089 13.2153 270.183 13.528 268.933 13.528H267.435V12.268H268.933ZM268.345 7.326C268.345 7.83933 268.466 8.20333 268.709 8.418C268.951 8.62333 269.339 8.726 269.871 8.726H271.411V7.326C271.411 6.75667 271.28 6.31333 271.019 5.996C270.757 5.66933 270.37 5.506 269.857 5.506C269.381 5.506 269.007 5.674 268.737 6.01C268.475 6.33667 268.345 6.77533 268.345 7.326ZM277.351 5.688V9.636C277.351 10.896 277.034 11.8573 276.399 12.52C275.765 13.192 274.85 13.528 273.655 13.528H272.773V12.268H273.655C274.589 12.268 275.256 12.0673 275.657 11.666C276.059 11.2647 276.259 10.588 276.259 9.636V5.688H277.351ZM280.362 12.268C281.016 12.268 281.52 12.1887 281.874 12.03C282.238 11.8807 282.49 11.6473 282.63 11.33C282.77 11.0127 282.84 10.5927 282.84 10.07V9.986H281.3C280.516 9.986 279.882 9.75267 279.396 9.286C278.92 8.81933 278.682 8.166 278.682 7.326C278.682 6.75667 278.79 6.23867 279.004 5.772C279.228 5.30533 279.536 4.93667 279.928 4.666C280.33 4.39533 280.782 4.26 281.286 4.26C281.818 4.26 282.285 4.39067 282.686 4.652C283.088 4.904 283.396 5.26333 283.61 5.73C283.825 6.19667 283.932 6.72867 283.932 7.326V10.07C283.932 11.134 283.648 11.974 283.078 12.59C282.518 13.2153 281.613 13.528 280.362 13.528H278.864V12.268H280.362ZM279.774 7.326C279.774 7.83933 279.896 8.20333 280.138 8.418C280.381 8.62333 280.768 8.726 281.3 8.726H282.84V7.326C282.84 6.75667 282.71 6.31333 282.448 5.996C282.187 5.66933 281.8 5.506 281.286 5.506C280.81 5.506 280.437 5.674 280.166 6.01C279.905 6.33667 279.774 6.77533 279.774 7.326ZM291.417 10C290.913 10 290.465 9.89267 290.073 9.678C289.681 9.454 289.373 9.16 289.149 8.796C288.934 8.42267 288.827 8.012 288.827 7.564C288.827 7.43333 288.832 7.33533 288.841 7.27C288.888 6.84067 289.042 6.08467 289.303 5.002L290.325 5.268C290.306 5.352 290.232 5.674 290.101 6.234C289.98 6.78467 289.91 7.172 289.891 7.396C289.882 7.44267 289.877 7.50333 289.877 7.578C289.877 7.942 290.008 8.22667 290.269 8.432C290.54 8.63733 290.922 8.74 291.417 8.74H297.465C297.941 8.74 298.296 8.642 298.529 8.446C298.762 8.25 298.879 7.93733 298.879 7.508V5.688H299.971V7.676C299.971 8.05867 300.064 8.334 300.251 8.502C300.438 8.66067 300.732 8.74 301.133 8.74H301.651L301.721 9.342L301.651 10H301.133C300.834 10 300.522 9.92533 300.195 9.776C299.868 9.62667 299.593 9.40267 299.369 9.104C299.145 9.39333 298.86 9.61733 298.515 9.776C298.17 9.92533 297.82 10 297.465 10H291.417ZM292.705 3.994H294.105V5.394H292.705V3.994ZM295.211 3.994H296.611V5.394H295.211V3.994ZM301.51 8.74H302.238V7.368C302.238 6.35067 302.471 5.548 302.938 4.96C303.414 4.36267 304.072 4.064 304.912 4.064C305.388 4.064 305.827 4.18533 306.228 4.428C306.639 4.67067 306.961 5.01133 307.194 5.45C307.437 5.87933 307.558 6.36467 307.558 6.906C307.558 7.08333 307.544 7.27 307.516 7.466C307.376 8.334 306.909 8.97333 306.116 9.384C305.323 9.78533 304.394 9.99067 303.33 10V10.084C303.33 10.812 303.554 11.344 304.002 11.68C304.45 12.016 305.159 12.2073 306.13 12.254V11.274C306.13 10.7607 306.237 10.3127 306.452 9.93C306.676 9.538 306.956 9.244 307.292 9.048C307.628 8.84267 307.969 8.74 308.314 8.74H309.154L309.224 9.37L309.154 10H308.314C308.006 10 307.745 10.1027 307.53 10.308C307.325 10.5227 307.222 10.8447 307.222 11.274V12.422L306.312 13.528C305.099 13.528 304.114 13.234 303.358 12.646C302.611 12.0673 302.238 11.2133 302.238 10.084V10H301.51V8.74ZM303.33 8.74C304.198 8.73067 304.912 8.60467 305.472 8.362C306.032 8.11933 306.349 7.75533 306.424 7.27C306.452 7.11133 306.466 6.96667 306.466 6.836C306.466 6.36 306.321 5.99133 306.032 5.73C305.752 5.45933 305.379 5.324 304.912 5.324C304.352 5.324 303.946 5.48267 303.694 5.8C303.451 6.11733 303.33 6.64 303.33 7.368V8.74ZM308.96 8.74H310.696C311.34 8.74 311.937 8.66067 312.488 8.502C313.048 8.334 313.547 8.13333 313.986 7.9C314.434 7.66667 315.045 7.31667 315.82 6.85C314.728 6.39267 313.893 6.05667 313.314 5.842C312.745 5.62733 312.348 5.52 312.124 5.52C311.844 5.52 311.625 5.58533 311.466 5.716C311.317 5.83733 311.172 6.08933 311.032 6.472L309.968 6.136C310.397 4.88533 311.116 4.26 312.124 4.26C312.441 4.26 312.927 4.38133 313.58 4.624C314.243 4.86667 315.162 5.23533 316.338 5.73L317.024 6.01L317.304 7.34L316.562 7.802C315.75 8.31533 315.078 8.71667 314.546 9.006C314.014 9.29533 313.426 9.53333 312.782 9.72C312.147 9.90667 311.452 10 310.696 10H308.96V8.74ZM312.418 11.764H313.818V13.164H312.418V11.764Z" fill="#0C0C0C"/>
</svg>
