<svg width="235" height="57" viewBox="0 0 235 57" fill="none" xmlns="http://www.w3.org/2000/svg">
<g filter="url(#filter0_i_121_55980)">
<path d="M14.1002 53.4331C5.5174 53.4331 0.376636 46.5936 2.56705 36.8038L4.26574 29.2044H11.1052L9.4065 36.7144C8.60186 40.2459 10.8817 43.0622 14.3238 43.0622H21.342H22.8172L22.6384 41.7211H18.7046C14.1002 41.7211 11.0158 37.6979 11.8204 33.4512L13.2062 26.12C14.0555 21.6944 17.0953 18.4759 21.4314 17.3136L23.2195 16.8219L25.9464 24.7789L22.2808 25.6729C21.2079 25.9412 20.448 26.7905 20.2245 27.9081L19.241 33.0041H23.3536C26.7063 33.0041 29.4778 35.1945 29.8355 38.5472L30.059 40.6482C30.8636 48.0688 26.2593 53.4331 17.4529 53.4331H14.1002ZM39.6193 15.5702V8.32845H47.1293V15.5702H39.6193ZM34.2998 53.4778L29.9636 44.7608L37.3842 41.7211C38.0995 41.4529 38.8147 41.14 39.5299 40.827V21.6944L47.1293 20.2193V40.7823C47.1293 45.3867 44.5366 49.2758 40.5134 50.9298L34.2998 53.4778ZM96.6316 46.3701L83.6679 42.5257C82.0586 44.3138 80.0023 44.8055 77.2307 44.8055H59.618C54.0749 44.8055 50.2305 40.7823 50.1858 34.7922L50.0517 15.2126L58.0982 13.0222V32.1548C58.0982 33.4512 59.0816 34.4346 60.378 34.4346H65.1164V24.1978L72.7158 22.4991V34.4346H77.6331C79.1976 34.4346 80.3599 33.2723 80.3599 31.7078V26.567H87.5123V31.3054V33.9429L93.9047 35.8651L90.8203 22.0074L98.1067 18.0289L101.594 33.8088C102.309 37.072 101.549 40.2906 99.4478 42.8833L96.6316 46.3701ZM107.677 15.5702V8.32845H115.187V15.5702H107.677ZM102.357 53.4778L98.0212 44.7608L105.442 41.7211C106.157 41.4529 106.872 41.14 107.587 40.827V21.6944L115.187 20.2193V40.7823C115.187 45.3867 112.594 49.2758 108.571 50.9298L102.357 53.4778ZM127.676 44.8055C122.132 44.8055 118.288 40.7823 118.243 34.7922L118.109 15.6596L126.156 13.4692V32.1548C126.156 33.4512 127.139 34.4346 128.436 34.4346H133.085H135.722L132.816 21.4709L140.639 17.6265L143.321 29.5173C145.378 38.5472 140.058 44.8055 132.146 44.8055H127.676ZM126.96 56.0705V48.8288H134.47V56.0705H126.96ZM163.836 53.4331C155.253 53.4331 150.112 46.5936 152.302 36.8038L154.001 29.2044H160.84L159.142 36.7144C158.337 40.2459 160.617 43.0622 164.059 43.0622H171.077H172.552L172.374 41.7211H168.44C163.836 41.7211 160.751 37.6979 161.556 33.4512L162.941 26.12C163.791 21.6944 166.831 18.4759 171.167 17.3136L172.955 16.8219L175.682 24.7789L172.016 25.6729C170.943 25.9412 170.183 26.7905 169.96 27.9081L168.976 33.0041H173.089C176.442 33.0041 179.213 35.1945 179.571 38.5472L179.794 40.6482C180.599 48.0688 175.995 53.4331 167.188 53.4331H163.836ZM197.28 6.76387V0.0138169H211.763V6.76387H197.28ZM192.765 44.8055C187.221 44.8055 183.377 40.7823 183.332 34.7922L183.198 15.2126L191.245 13.0222V32.1548C191.245 33.4512 192.228 34.4346 193.525 34.4346H206.354H209.617V32.0207L208.5 32.6465C207.472 33.2276 206.354 33.5406 205.192 33.5406H201.929C198.486 33.5406 195.849 31.1266 195.402 27.6846L194.776 22.6779C194.061 16.956 197.414 12.1729 203.046 10.9212L211.942 8.99898L214.758 11.3235C216.278 12.5752 217.083 14.408 217.083 16.3749V34.7922C217.083 40.6035 212.881 44.8055 207.069 44.8055H192.765ZM202.51 24.7789H209.573L209.528 17.4924L203.538 18.7441C202.331 19.0123 201.839 19.8169 202.018 21.0686L202.51 24.7789ZM223.35 17.403L218.388 15.3467V14.6762C218.388 10.8765 221.16 8.10494 224.959 8.10494H234.883L233.274 14.5421H223.35V17.403ZM223.797 46.0572V18.6994L231.843 16.509V43.8221L223.797 46.0572Z" fill="#1BE0B1"/>
</g>
<defs>
<filter id="filter0_i_121_55980" x="0.376953" y="0.0137939" width="234.506" height="57.7553" filterUnits="userSpaceOnUse" color-interpolation-filters="sRGB">
<feFlood flood-opacity="0" result="BackgroundImageFix"/>
<feBlend mode="normal" in="SourceGraphic" in2="BackgroundImageFix" result="shape"/>
<feColorMatrix in="SourceAlpha" type="matrix" values="0 0 0 0 0 0 0 0 0 0 0 0 0 0 0 0 0 0 127 0" result="hardAlpha"/>
<feOffset dy="1.6985"/>
<feGaussianBlur stdDeviation="0.849252"/>
<feComposite in2="hardAlpha" operator="arithmetic" k2="-1" k3="1"/>
<feColorMatrix type="matrix" values="0 0 0 0 0 0 0 0 0 0 0 0 0 0 0 0 0 0 0.18 0"/>
<feBlend mode="normal" in2="shape" result="effect1_innerShadow_121_55980"/>
</filter>
</defs>
</svg>
