<svg width="134" height="36" viewBox="0 0 134 36" fill="none" xmlns="http://www.w3.org/2000/svg">
<rect x="0.448242" y="3.83301" width="133.04" height="32" rx="5.02019" fill="#213543"/>
<path d="M7.34713 12.4296H8.71764L8.73521 23.833H7.3647L7.34713 12.4296ZM13.9651 18.4212V20.9163C13.9651 21.3965 14.0822 21.7421 14.3165 21.9529C14.5508 22.1521 14.9198 22.2516 15.4235 22.2516H15.5992L15.7046 23.0599L15.5992 23.833H15.4235C14.8261 23.833 14.3399 23.669 13.9651 23.341V23.3762C13.9651 24.9575 13.5668 26.1641 12.7703 26.9957C11.9738 27.8391 10.8258 28.2608 9.32644 28.2608H8.21949V26.6795H9.32644C10.4978 26.6795 11.3354 26.4276 11.839 25.9239C12.3427 25.4202 12.5946 24.571 12.5946 23.3762V18.4212H13.9651ZM15.3539 22.2516H17.5326C18.3409 22.2516 19.0906 22.1521 19.7817 21.9529C20.4845 21.7421 21.1112 21.4903 21.6617 21.1974C22.224 20.9046 22.9912 20.4653 23.9635 19.8796C22.593 19.3056 21.5446 18.8839 20.8183 18.6145C20.1038 18.3451 19.606 18.2104 19.3248 18.2104C18.9734 18.2104 18.6981 18.2924 18.499 18.4564C18.3116 18.6087 18.13 18.9249 17.9543 19.4052L16.619 18.9835C17.1578 17.4139 18.0597 16.629 19.3248 16.629C19.7231 16.629 20.3322 16.7813 21.1522 17.0859C21.9839 17.3904 23.1377 17.8531 24.6136 18.474L25.4746 18.8254L25.826 20.4946L24.8947 21.0744C23.8756 21.7187 23.0322 22.2224 22.3646 22.5855C21.6969 22.9486 20.9589 23.2473 20.1507 23.4816C19.3541 23.7159 18.4814 23.833 17.5326 23.833H15.3539V22.2516ZM19.6938 26.0469H21.4509V27.804H19.6938V26.0469ZM28.2809 12.4296H29.6514L29.669 23.833H28.2985L28.2809 12.4296ZM39.4253 23.833C38.7927 23.833 38.2305 23.6983 37.7385 23.4289C37.2465 23.1478 36.86 22.7788 36.5788 22.3219C36.3094 21.8534 36.1747 21.338 36.1747 20.7757C36.1747 20.6117 36.1806 20.4887 36.1923 20.4067C36.2508 19.8679 36.4441 18.9191 36.7721 17.5603L38.0548 17.8941C38.0313 17.9995 37.9376 18.4037 37.7736 19.1065C37.6213 19.7976 37.5335 20.2837 37.5101 20.5649C37.4984 20.6234 37.4925 20.6996 37.4925 20.7933C37.4925 21.2501 37.6565 21.6074 37.9845 21.8651C38.3242 22.1228 38.8044 22.2516 39.4253 22.2516H47.0158C47.6132 22.2516 48.0583 22.1287 48.3512 21.8827C48.644 21.6367 48.7904 21.2443 48.7904 20.7054V18.4212H50.1609V20.9163C50.1609 21.3965 50.2781 21.7421 50.5124 21.9529C50.7466 22.1521 51.1156 22.2516 51.6193 22.2516H52.2694L52.3573 23.0072L52.2694 23.833H51.6193C51.2445 23.833 50.8521 23.7393 50.4421 23.5519C50.0321 23.3645 49.6865 23.0833 49.4054 22.7085C49.1243 23.0716 48.767 23.3527 48.3336 23.5519C47.9002 23.7393 47.4609 23.833 47.0158 23.833H39.4253ZM41.0418 16.2952H42.7988V18.0523H41.0418V16.2952ZM44.1869 16.2952H45.944V18.0523H44.1869V16.2952ZM52.0926 22.2516H53.1644C53.7267 22.2516 54.125 22.1287 54.3592 21.8827C54.6052 21.6367 54.7282 21.2443 54.7282 20.7054V18.4212H56.0987V20.9163C56.0987 21.3848 56.21 21.7245 56.4326 21.9354C56.6669 22.1345 57.0241 22.2399 57.5044 22.2516C58.0667 22.2399 58.4649 22.1169 58.6992 21.8827C58.9452 21.6367 59.0682 21.2443 59.0682 20.7054V18.4212H60.4387V20.9163C60.4387 21.3848 60.55 21.7245 60.7725 21.9354C61.0068 22.1345 61.3641 22.2399 61.8443 22.2516C62.3363 22.2399 62.6995 22.1287 62.9337 21.9178C63.168 21.707 63.2851 21.4141 63.2851 21.0393C63.2851 20.7347 63.2266 20.2603 63.1094 19.616C63.004 18.9601 62.881 18.3334 62.7404 17.736L64.0758 17.3846C64.2164 17.982 64.3452 18.6379 64.4624 19.3525C64.5912 20.067 64.6557 20.6234 64.6557 21.0217C64.6557 21.4903 64.5444 21.9412 64.3218 22.3746C64.111 22.8081 63.7888 23.1595 63.3554 23.4289C62.9337 23.6983 62.43 23.833 61.8443 23.833C61.4695 23.833 61.0829 23.7452 60.6847 23.5694C60.2981 23.382 59.9643 23.095 59.6832 22.7085C59.1092 23.4582 58.3829 23.833 57.5044 23.833C57.1178 23.833 56.7254 23.7334 56.3272 23.5343C55.9289 23.3235 55.6009 23.0482 55.3432 22.7085C55.0621 23.0833 54.7341 23.3645 54.3592 23.5519C53.9844 23.7393 53.5861 23.833 53.1644 23.833H52.0926V22.2516ZM69.6971 18.4212V20.9163C69.6971 21.3965 69.8142 21.7421 70.0485 21.9529C70.2828 22.1521 70.6517 22.2516 71.1554 22.2516H71.3311L71.4366 23.0599L71.3311 23.833H71.1554C70.558 23.833 70.0719 23.669 69.6971 23.341V23.3762C69.6971 24.9575 69.2988 26.1641 68.5023 26.9957C67.7057 27.8391 66.5578 28.2608 65.0584 28.2608H63.9515V26.6795H65.0584C66.2298 26.6795 67.0673 26.4276 67.571 25.9239C68.0747 25.4202 68.3266 24.571 68.3266 23.3762V18.4212H69.6971ZM71.2088 22.2516H73.9147C75.1212 22.2516 75.7245 21.8475 75.7245 21.0393C75.7245 20.723 75.6659 20.2486 75.5488 19.616C75.4434 18.9718 75.3204 18.3451 75.1798 17.736L76.5152 17.3846C76.6557 17.982 76.7846 18.6379 76.9017 19.3525C77.0306 20.067 77.095 20.6234 77.095 21.0217C77.095 21.5137 76.9779 21.9764 76.7436 22.4098C76.5093 22.8315 76.152 23.177 75.6718 23.4465C75.1915 23.7042 74.6058 23.833 73.9147 23.833H71.2088V22.2516ZM71.6481 25.5901H73.4052V27.3471H71.6481V25.5901ZM73.3173 27.9445H74.9865V29.6138H73.3173V27.9445ZM74.8811 25.5901H76.6382V27.3471H74.8811V25.5901ZM83.7158 18.4212V20.9163C83.7158 21.3965 83.833 21.7421 84.0673 21.9529C84.3015 22.1521 84.6705 22.2516 85.1742 22.2516H85.3499L85.4553 23.0599L85.3499 23.833H85.1742C84.5768 23.833 84.0907 23.669 83.7158 23.341V23.3762C83.7158 24.9575 83.3176 26.1641 82.521 26.9957C81.7245 27.8391 80.5766 28.2608 79.0772 28.2608H77.9702V26.6795H79.0772C80.2486 26.6795 81.0861 26.4276 81.5898 25.9239C82.0935 25.4202 82.3453 24.571 82.3453 23.3762V18.4212H83.7158ZM85.1749 22.2516H86.2467C86.809 22.2516 87.2072 22.1287 87.4415 21.8827C87.6875 21.6367 87.8105 21.2443 87.8105 20.7054V18.4212H89.181V20.9163C89.181 21.3848 89.2923 21.7245 89.5149 21.9354C89.7491 22.1345 90.1064 22.2399 90.5867 22.2516C91.1489 22.2399 91.5472 22.1169 91.7815 21.8827C92.0275 21.6367 92.1505 21.2443 92.1505 20.7054V18.4212H93.521V20.9163C93.521 21.3848 93.6322 21.7245 93.8548 21.9354C94.0891 22.1345 94.4464 22.2399 94.9266 22.2516C95.4186 22.2399 95.7817 22.1287 96.016 21.9178C96.2503 21.707 96.3674 21.4141 96.3674 21.0393C96.3674 20.7347 96.3088 20.2603 96.1917 19.616C96.0863 18.9601 95.9633 18.3334 95.8227 17.736L97.1581 17.3846C97.2987 17.982 97.4275 18.6379 97.5446 19.3525C97.6735 20.067 97.7379 20.6234 97.7379 21.0217C97.7379 21.4903 97.6266 21.9412 97.4041 22.3746C97.1932 22.8081 96.8711 23.1595 96.4377 23.4289C96.016 23.6983 95.5123 23.833 94.9266 23.833C94.5518 23.833 94.1652 23.7452 93.767 23.5694C93.3804 23.382 93.0466 23.095 92.7654 22.7085C92.1914 23.4582 91.4652 23.833 90.5867 23.833C90.2001 23.833 89.8077 23.7334 89.4094 23.5343C89.0112 23.3235 88.6832 23.0482 88.4255 22.7085C88.1443 23.0833 87.8164 23.3645 87.4415 23.5519C87.0667 23.7393 86.6684 23.833 86.2467 23.833H85.1749V22.2516ZM108.417 28.2608C107.445 28.2608 106.619 28.0207 105.939 27.5404C105.26 27.0602 104.745 26.4276 104.393 25.6428C104.053 24.858 103.884 24.0204 103.884 23.1302C103.884 22.5562 103.971 21.9354 104.147 21.2677C104.335 20.6 104.551 20.0026 104.797 19.4755L106.01 20.0729C105.799 20.518 105.617 21.0217 105.465 21.584C105.324 22.1462 105.254 22.6616 105.254 23.1302C105.254 24.1961 105.512 25.0512 106.027 25.6955C106.554 26.3515 107.351 26.6795 108.417 26.6795H109.278C110.074 26.6795 110.695 26.5857 111.14 26.3983C111.585 26.2226 111.902 25.9356 112.089 25.5374C112.276 25.1508 112.37 24.6178 112.37 23.9384L112.353 12.4296H113.723L113.741 20.7581C113.741 21.3204 113.875 21.7128 114.145 21.9354C114.426 22.1462 114.807 22.2516 115.287 22.2516H115.55L115.656 23.0775L115.55 23.833H115.287C114.69 23.833 114.174 23.669 113.741 23.341V23.9384C113.741 25.2972 113.383 26.3573 112.669 27.1187C111.954 27.8801 110.824 28.2608 109.278 28.2608H108.417ZM120.1 18.4212V20.9163C120.1 21.3965 120.217 21.7421 120.451 21.9529C120.685 22.1521 121.054 22.2516 121.558 22.2516H122.208L122.296 23.0599L122.208 23.833H121.558C121.183 23.833 120.791 23.7393 120.381 23.5519C119.971 23.3645 119.625 23.0833 119.344 22.7085C119.063 23.0716 118.706 23.3527 118.272 23.5519C117.839 23.7393 117.4 23.833 116.955 23.833H115.426V22.2516H116.955C117.552 22.2516 117.997 22.1287 118.29 21.8827C118.583 21.6367 118.729 21.2443 118.729 20.7054V18.4212H120.1ZM116.814 14.6787H118.571V16.4358H116.814V14.6787ZM122.032 22.2516H124.404C125.611 22.2516 126.214 21.8475 126.214 21.0393C126.214 20.723 126.155 20.2486 126.038 19.616C125.933 18.9718 125.81 18.3451 125.669 17.736L127.005 17.3846C127.145 17.982 127.274 18.6379 127.391 19.3525C127.52 20.067 127.584 20.6234 127.584 21.0217C127.584 21.5137 127.467 21.9764 127.233 22.4098C126.999 22.8315 126.641 23.177 126.161 23.4465C125.681 23.7042 125.095 23.833 124.404 23.833H122.032V22.2516ZM121.277 25.5725H123.034V27.3296H121.277V25.5725ZM122.946 27.927H124.615V29.5962H122.946V27.927ZM124.51 25.5725H126.267V27.3296H124.51V25.5725Z" fill="#1BE0B1"/>
<path d="M66.8878 0.72046L63.6425 3.96575C62.8519 4.75638 63.4118 6.10825 64.53 6.10825H71.0205C72.1387 6.10825 72.6986 4.75638 71.908 3.96575L68.6627 0.720461C68.1726 0.230334 67.3779 0.230333 66.8878 0.72046Z" fill="#213543"/>
</svg>
